<svg width="487" height="391" viewBox="0 0 487 391" fill="none" xmlns="http://www.w3.org/2000/svg">
<g filter="url(#filter0_d_120_2)">
<path d="M389.987 67.9824C391.933 74.2868 397.18 76.7427 410.541 74.6535C413.439 74.2135 416.34 73.8104 419.238 73.6637C432.121 73.1506 444.857 78.3922 453.299 88.2519C455.575 90.9277 457.63 93.9332 459.098 97.0854C459.978 99.0279 460.749 100.971 461.483 102.95C464.052 110.024 466.291 117.208 468.237 124.466C472.311 139.676 475.504 155.181 477.852 170.759C479.761 183.221 481.303 195.756 481.926 208.365C481.926 208.658 481.963 208.915 481.963 209.208C481.963 209.355 481.963 209.502 482 209.648C482 209.722 482 210.051 482 209.868C481.963 212.324 481.963 214.78 481.596 217.235C481.082 220.974 480.091 224.64 478.623 228.122C477.229 231.42 475.467 234.536 473.374 237.394C471.577 239.887 469.41 242.012 467.319 244.248C457.336 254.805 448.38 264.519 439.058 274.745C435.902 278.226 435.535 287.316 437.444 297.616C433.993 293.914 415.936 287.647 412.485 283.981C407.017 278.154 401.548 272.326 396.079 266.497C394.832 265.141 393.547 263.821 392.3 262.466C396.044 260.303 399.639 257.884 403.163 255.428C407.677 252.276 416.486 233.876 420.89 230.578C422.248 235.599 429.002 235.929 432.745 232.886C436.636 229.697 440.453 226.398 444.27 223.063C446.582 221.047 449.114 219.104 450.436 216.246C451.353 214.303 451.757 212.213 451.757 210.088C451.757 210.235 451.757 210.381 451.757 210.49C451.794 205.397 451.427 200.301 451.06 195.206C450.51 187.986 449.665 180.802 448.564 173.691C446.325 159.323 443.462 145.101 439.425 131.1C438.324 127.251 437.149 123.403 435.755 119.627C434.69 116.658 433.368 113.689 432.305 110.794C432.341 110.904 432.378 110.977 432.415 111.087C431.02 108.814 429.443 106.835 426.872 105.846C425.478 105.332 423.9 105.002 422.432 105.149C421.514 105.222 398.759 106.212 398.539 117.318C397.951 113.506 391.418 103.756 390.831 99.9444C389.876 93.8599 388.959 87.7754 388.004 81.6908C387.674 80.298 390.208 69.3753 389.987 67.9824Z" fill="#CE1F2C"/>
<path d="M428.378 275.074C421.441 251.727 405.256 188.463 383.308 47.127L235.177 70.0721C253.087 185.348 258.006 272.399 259.253 302.161C259.583 310.005 260.354 317.812 261.566 325.584L262.191 329.541C263.292 336.689 268.65 340.245 275.622 343.25C287.808 348.528 318.638 350.397 353.725 344.972C393.144 338.851 421.185 328.992 430.47 316.53C430.47 316.53 435.756 310.042 434.618 302.858V302.822C433.15 293.438 431.058 284.165 428.378 275.074Z" fill="#6DEEC0"/>
<path d="M354.313 348.785C321.537 353.843 288.579 353.038 274.082 346.806C267.145 343.801 259.841 339.475 258.373 330.165L257.748 326.206C256.538 318.362 255.73 310.337 255.4 302.382C254.079 270.714 249.05 184.761 231.359 70.7325C231.029 68.6433 232.461 66.664 234.552 66.334L382.684 43.3891C384.776 43.0593 386.757 44.4887 387.087 46.578C408.632 185.348 424.487 248.648 432.012 274.012C434.764 283.322 436.929 292.816 438.361 302.199C439.683 310.666 434.177 317.96 433.443 318.877C421.185 335.37 383.638 344.241 354.313 348.785ZM239.58 73.2983C256.868 185.824 261.786 270.604 263.106 302.015C263.438 309.713 264.172 317.446 265.345 324.998L265.97 328.956C266.704 333.611 269.713 336.543 277.127 339.732C288.321 344.57 318.013 346.623 353.101 341.198C392.043 335.151 419.092 325.327 427.351 314.257C427.388 314.222 427.423 314.185 427.46 314.111C427.497 314.075 431.645 308.834 430.8 303.445C429.369 294.318 427.314 285.191 424.634 276.175C417.111 250.848 401.365 188.06 380.041 51.5261L239.58 73.2983Z" fill="#CE1F2C"/>
<path d="M383.308 47.127C381.876 38.0002 347.596 35.7277 306.673 42.0688C265.787 48.4098 233.781 60.9454 235.177 70.072C236.608 79.1988 270.889 81.4713 311.811 75.1302C352.734 68.8258 384.739 56.2536 383.308 47.127Z" fill="#6DEEC0"/>
<path d="M312.398 78.9422C292.359 82.0576 273.2 83.2306 258.446 82.241C241.269 81.1047 232.424 77.3295 231.396 70.6586C230.369 63.9877 237.636 57.7198 253.675 51.452C267.438 46.064 286.046 41.3725 306.086 38.2936C326.125 35.1781 345.284 34.005 360.038 34.9947C377.215 36.1309 386.061 39.9063 387.088 46.5773C388.116 53.2482 380.849 59.5159 364.81 65.7836C351.083 71.1717 332.475 75.8266 312.398 78.9422ZM307.26 45.8809C287.954 48.8865 270.044 53.3582 256.831 58.4529C241.747 64.3175 238.92 68.6426 238.957 69.4857C239.141 70.2921 243.141 73.5908 259.327 74.6171C273.457 75.4968 291.882 74.3607 311.188 71.355C330.492 68.3494 348.404 63.8776 361.617 58.7827C376.701 52.9181 379.528 48.5933 379.454 47.7502C379.27 46.9438 375.27 43.6449 359.084 42.6186C344.991 41.7024 326.565 42.8753 307.26 45.8809Z" fill="#CE1F2C"/>
<path d="M317.537 111.747C289.459 116.108 274.815 115.999 262.85 113.506L262.116 108.888C260.061 108.375 255.546 111.637 253.526 110.977C265.786 194.584 268.942 257.224 269.713 279.472C269.86 283.175 270.117 286.84 270.52 290.542C272.061 294.83 276.1 297.213 281.163 299.228C291.331 303.298 317.572 307.037 347.008 302.454C380.113 297.323 403.272 286.84 411.164 276.907C411.164 276.907 414.357 273.205 414.798 268.624C413.916 264.628 412.852 260.669 411.677 256.784C406.282 239.19 394.133 192.97 377.985 91.8438C366.974 99.5409 353.211 106.212 317.537 111.747Z" fill="#CE1F2C"/>
<path d="M381.362 85.9433C392.41 84.074 403.53 82.3511 414.652 80.775C418.212 80.2618 421.515 79.8588 425.112 80.2621C431.204 80.8851 437.259 83.011 442.398 86.3831C447.756 89.9018 452.162 94.9234 453.335 101.338C448.931 91.2947 437.333 85.7967 426.836 84.8804C424.671 84.6971 422.469 84.7337 420.303 85.027C418.798 85.2469 417.293 85.6867 415.788 86.0531C409.843 87.4826 403.897 88.8021 397.915 90.1584C392.886 91.2946 387.858 92.3942 382.793 93.4572C382.317 90.9648 381.839 88.4357 381.362 85.9433Z" fill="#6DEEC0"/>
<path d="M414.211 258.398L452.603 225.264L419.643 263.786L414.211 258.398Z" fill="#6DEEC0"/>
<path d="M383.638 73.959C384.078 76.7447 389.693 85.3215 402.722 83.3056C415.753 81.2897 381.179 89.7566 381.179 89.7566L380.188 73.3359L383.638 73.959Z" fill="#6DEEC0"/>
<path d="M435.902 104.014C440.306 109.035 443.279 114.937 445.886 121.058C448.785 127.912 451.024 135.096 452.896 142.28C456.712 156.904 459.245 171.97 460.089 187.034C460.493 194.254 460.567 201.658 459.171 208.769C459.245 202.428 458.621 196.124 457.814 189.82C456.86 182.452 455.685 175.122 454.4 167.791C451.758 153.093 448.711 138.321 444.307 124.027C442.142 117.136 439.646 110.281 435.902 104.014Z" fill="#6DEEC0"/>
<path d="M415.128 239.997C416.67 246.742 423.203 251.471 430.47 244.506C437.737 237.543 418.579 257.849 418.579 257.849L414.358 251.214L412.56 239.631L415.128 239.997Z" fill="#6DEEC0"/>
<path d="M427.607 254.328C424.817 257.554 421.111 264.189 423.313 272.215C425.405 279.729 416.377 257.445 416.377 257.445L427.607 254.328Z" fill="#6DEEC0"/>
<path d="M418.836 283.432C416.45 288.49 401.145 300.915 384.372 305.02C394.465 307.037 407.459 307.219 413.588 316.749C418.066 313.817 422.028 310.556 423.131 307.953C425.038 303.371 418.836 283.432 418.836 283.432Z" fill="#CE1F2C"/>
<path d="M272.136 306.158C275.953 310.226 294.782 316.531 311.041 315.174C302.048 320.16 290.193 325.402 287.257 336.324C282.119 334.895 277.31 332.988 275.512 330.825C272.319 327.014 272.136 306.158 272.136 306.158Z" fill="#CE1F2C"/>
<path d="M277.347 125.125C278.264 130.733 278.889 134.581 279.769 140.189C282.008 154.668 284.063 169.145 285.972 183.66C287.953 198.578 289.79 213.533 291.441 228.525C293.019 242.856 294.56 257.15 295.919 271.519C297.057 283.394 298.121 295.234 299.185 307.109C299.222 307.475 299.259 307.805 299.259 308.171C295.478 308.428 291.662 308.686 287.881 308.906C286.817 308.978 285.789 309.052 284.725 309.125C284.321 309.161 283.366 309.419 282.999 309.235C282.742 309.125 282.853 308.649 282.816 308.319C282.706 306.816 282.632 305.35 282.523 303.847C281.971 295.491 281.385 287.133 280.76 278.776C280.063 269.429 279.329 260.047 278.522 250.7C277.678 240.509 276.759 230.32 275.769 220.131C274.778 209.831 273.75 199.531 272.613 189.231C271.511 179.151 270.337 169.036 269.09 158.993C267.915 149.463 266.666 139.97 265.309 130.44C264.905 127.654 264.794 126.628 264.392 123.842C268.098 124.722 274.815 125.198 277.347 125.125Z" fill="#6DEEC0"/>
<path d="M369.947 91.4414C371.085 100.202 372.26 108.925 373.471 117.648C375.086 129.231 376.773 140.851 378.573 152.396C380.481 164.784 382.537 177.174 384.776 189.526C386.977 201.548 389.253 213.571 391.713 225.556C393.841 235.965 396.153 246.302 398.576 256.639C398.648 256.931 398.722 257.224 398.759 257.481C395.822 248.501 392.997 239.521 390.354 230.468C386.977 218.885 383.894 207.193 381.032 195.464C378.022 183.258 375.196 171.053 372.481 158.774C369.838 146.898 367.341 134.986 364.956 123.073C363.01 113.397 361.212 103.684 359.414 93.9704C359.378 93.6773 359.304 93.3841 359.267 93.1275C362.864 92.5777 366.424 92.0278 369.947 91.4414Z" fill="#6DEEC0"/>
<path d="M292.469 149.135C292.726 150.564 292.947 151.993 293.203 153.423C293.864 157.308 294.487 161.193 295.149 165.041C296.103 170.76 297.057 176.515 298.012 182.232C299.185 189.234 300.36 196.271 301.535 203.271C302.819 210.895 304.067 218.555 305.351 226.179C306.636 233.951 307.957 241.684 309.242 249.455C310.453 256.676 311.664 263.859 312.839 271.081C313.867 277.165 314.857 283.249 315.885 289.371C316.619 293.769 317.353 298.167 318.087 302.566C318.308 303.921 318.528 305.278 318.784 306.634C318.895 307.293 319.151 308.1 319.151 308.759C319.151 308.833 319.188 308.944 319.188 309.016C316.473 309.383 313.719 309.749 311.004 310.116C310.82 308.687 310.674 307.221 310.49 305.79C310.049 301.868 309.608 297.983 309.132 294.061C308.472 288.307 307.811 282.516 307.151 276.761C306.343 269.687 305.535 262.65 304.728 255.576C303.846 247.879 302.966 240.218 302.085 232.52C301.204 224.713 300.286 216.906 299.406 209.099C298.562 201.842 297.717 194.585 296.909 187.327C296.212 181.207 295.515 175.049 294.782 168.928C294.268 164.492 293.753 160.094 293.24 155.659C292.982 153.57 292.763 151.48 292.506 149.39C292.506 149.318 292.506 149.244 292.469 149.135Z" fill="#6DEEC0"/>
<path d="M381.728 315.395C382.243 318.804 368.075 323.825 350.018 326.611C331.998 329.396 316.912 328.919 316.398 325.511C315.885 322.102 330.052 317.081 348.109 314.295C366.168 311.51 381.215 311.985 381.728 315.395Z" fill="#CE1F2C"/>
<path d="M389.363 109.623C388.153 101.926 389.07 92.1392 397.585 89.7934C405.659 87.5575 382.537 88.3272 382.537 88.3272L384.115 102.952L389.363 109.623Z" fill="#6DEEC0"/>
<path d="M284.028 137.88L262.374 136.635L262.741 148.511L285.9 149.829L284.028 137.88Z" fill="#CE1F2C"/>
<path d="M336.144 121.313C336.402 122.962 335.264 124.465 333.648 124.722C331.997 124.978 330.492 123.842 330.236 122.229C329.978 120.58 331.116 119.077 332.731 118.82C334.346 118.564 335.887 119.663 336.144 121.313Z" fill="#6DEEC0"/>
<path d="M347.339 166.839C347.596 168.488 346.458 169.991 344.844 170.247C343.191 170.504 341.687 169.367 341.43 167.755C341.173 166.141 342.31 164.603 343.925 164.346C345.578 164.089 347.119 165.188 347.339 166.839Z" fill="#6DEEC0"/>
<path d="M333.172 150.012C333.429 151.663 332.291 153.164 330.675 153.421C329.024 153.679 327.519 152.542 327.263 150.93C327.006 149.279 328.143 147.776 329.758 147.521C331.374 147.264 332.914 148.4 333.172 150.012Z" fill="#6DEEC0"/>
<path d="M347.963 133.813C348.22 135.462 347.082 136.965 345.466 137.221C343.815 137.478 342.31 136.342 342.054 134.729C341.797 133.08 342.934 131.577 344.549 131.32C346.165 131.064 347.705 132.163 347.963 133.813Z" fill="#6DEEC0"/>
<path d="M322.123 112.224C322.894 117.062 319.555 121.644 314.673 122.377C309.828 123.147 305.241 119.811 304.507 114.936C303.736 110.098 307.076 105.553 311.958 104.784C316.839 104.05 321.389 107.349 322.123 112.224Z" fill="#6DEEC0"/>
<path d="M346.568 105.882C346.936 108.301 345.284 110.574 342.861 110.94C340.439 111.307 338.163 109.657 337.796 107.238C337.429 104.819 339.082 102.546 341.504 102.18C343.927 101.813 346.201 103.463 346.568 105.882Z" fill="#6DEEC0"/>
<path d="M299.772 114.643C299.772 114.643 299.846 114.423 299.919 114.057C299.993 113.837 300.067 113.544 300.139 113.251C300.25 112.884 300.36 112.554 300.506 112.187C300.801 111.454 301.205 110.648 301.755 109.842C302.011 109.438 302.306 109.035 302.636 108.669C302.966 108.302 303.296 107.936 303.663 107.606C304.031 107.276 304.398 106.946 304.801 106.689C305.205 106.396 305.608 106.176 306.012 105.956C306.82 105.553 307.59 105.297 308.288 105.15C308.618 105.077 308.948 105.04 309.206 105.003C309.462 104.967 309.719 104.967 309.903 104.967C310.27 104.967 310.49 104.967 310.49 104.967C310.49 104.967 310.27 105.04 309.94 105.15C309.756 105.223 309.536 105.297 309.315 105.407C309.095 105.517 308.802 105.626 308.544 105.81C307.994 106.14 307.443 106.58 306.893 107.093C306.637 107.386 306.379 107.642 306.159 107.972C305.939 108.266 305.718 108.632 305.535 108.962C305.351 109.292 305.168 109.658 305.058 110.025C304.912 110.391 304.801 110.721 304.728 111.088C304.545 111.784 304.434 112.444 304.434 112.994C304.398 113.287 304.398 113.507 304.434 113.727C304.434 113.91 304.434 114.093 304.471 114.313C304.508 114.68 304.508 114.9 304.508 114.9L299.772 114.643Z" fill="#CE1F2C"/>
<path d="M346.165 23.7792C345.174 18.0247 339.853 14.1027 334.384 13.0031C328.877 11.9402 322.639 14.1027 319.372 18.5011C312.179 6.91864 299.589 2.00724 286.744 9.96104C270.045 -1.29156 243.435 7.61506 240.169 27.6645C234.37 23.8892 227.8 24.0724 221.376 27.8477C212.751 32.9425 211.613 42.7658 215.284 49.2534C209.374 53.1754 203.723 59.993 205.045 68.3867C206.549 78.0998 213.705 84.844 221.634 85.2838C217.816 98.2224 226.001 112.994 241.709 114.13C255.913 115.156 266.044 102.877 265.236 89.389C269.824 92.2845 279.036 91.405 283.88 88.4726C288.139 85.8702 291.772 81.9482 293.79 77.4032C299.589 76.8167 305.646 76.0837 311.849 75.0941C352.735 68.753 380.776 58.5999 383.345 47.0907C388.006 26.4915 365.286 10.9505 346.165 23.7792Z" fill="#6DEEC0"/>
<path d="M247.288 117.794C245.38 118.088 243.435 118.161 241.452 118.014C233.195 117.428 226.112 113.506 221.597 106.945C217.853 101.557 216.275 94.886 217.083 88.3983C209.008 86.0525 202.732 78.6119 201.264 68.972C200.089 61.3481 203.539 53.6876 210.55 47.9697C207.833 40.0526 210.146 30.0095 219.431 24.5481C225.45 20.9926 231.837 20.1862 237.636 22.1655C241.452 11.5727 251.583 3.58229 264.245 1.603C272.319 0.356785 280.248 1.71292 286.853 5.45157C289.754 3.94878 292.689 2.95914 295.662 2.48265C304.727 1.08982 313.536 4.8285 319.922 12.599C322.382 10.803 325.318 9.55671 328.511 9.08022C330.75 8.75034 332.988 8.7871 335.118 9.19029C340.035 10.1433 345.394 13.2222 348.184 18.1338C350.862 16.8509 353.652 15.9711 356.515 15.5313C365.544 14.1384 374.609 17.2173 380.738 23.7782C386.758 30.2292 389.07 39.0262 387.051 47.8963C383.381 64.5003 344.44 73.8836 312.398 78.8318C306.966 79.6748 301.571 80.3713 296.25 80.921C293.864 85.2461 290.23 88.9848 285.826 91.6605C283.551 93.0533 280.504 94.0796 277.238 94.5928C275.55 94.8493 272.283 95.1792 268.833 94.6294C267.401 106.505 258.813 115.998 247.288 117.794ZM229.304 28.9465C227.359 29.2397 225.341 30.0095 223.321 31.1824C216.825 35.0309 215.835 42.4349 218.624 47.383L220.385 50.4987L217.413 52.478C215.064 54.0174 207.577 59.7353 208.824 67.8358C209.999 75.3864 215.468 81.1409 221.853 81.5074L226.698 81.8007L225.341 86.419C223.725 91.8805 224.68 97.9282 227.91 102.583C231.103 107.165 236.094 109.914 242.003 110.354C243.398 110.464 244.792 110.39 246.113 110.207C255.326 108.778 262.043 99.7609 261.418 89.6813L260.942 82.1672L267.291 86.1991C269.052 87.3354 272.54 87.702 276.1 87.1155C278.339 86.749 280.467 86.0892 281.862 85.2095C285.569 82.9736 288.616 79.5649 290.267 75.8629L291.185 73.8103L293.423 73.5905C299.259 73.0039 305.279 72.2708 311.26 71.318C359.231 63.8773 378.06 53.1744 379.6 46.2836C381.069 39.9059 379.454 33.6381 375.196 29.0931C370.793 24.3647 364.26 22.1657 357.762 23.192C354.496 23.7051 351.34 24.9511 348.367 26.9671L343.449 30.266L342.422 24.438C341.686 20.1862 337.503 17.5472 333.685 16.7776C332.438 16.5209 331.08 16.5209 329.721 16.7042C326.749 17.1806 324.07 18.6834 322.528 20.7726L319.152 25.3544L316.142 20.5527C311.297 12.7822 304.288 8.9704 296.837 10.1433C294.157 10.5465 291.478 11.6094 288.799 13.2588L286.67 14.5783L284.615 13.1854C279.256 9.5567 272.429 8.16406 265.419 9.26367C256.06 10.7298 245.783 17.1806 243.949 28.3232L242.994 34.1513L238.04 30.9257C235.323 29.1298 232.387 28.4701 229.304 28.9465Z" fill="#CE1F2C"/>
<path d="M242.812 24.8809C243.546 26.0171 244.28 27.1167 244.83 28.3629C245.453 29.8658 245.894 31.4053 246.115 33.018C246.519 35.6571 246.445 38.5525 245.82 41.155C245.197 38.9558 244.169 36.8299 242.848 34.9605C242.114 33.8975 241.27 32.908 240.242 32.1016C239.398 31.4419 238.444 31.002 237.526 30.4889C239.287 28.6196 241.05 26.7501 242.812 24.8809Z" fill="#CE1F2C"/>
<path d="M218.146 83.7073C218.146 83.7073 218.294 83.5239 218.587 83.1574C218.734 82.9742 218.882 82.7543 219.101 82.5344C219.358 82.2411 219.651 81.8745 219.946 81.508C220.239 81.1048 220.606 80.8117 220.937 80.4818C221.267 80.1153 221.671 79.7852 222.074 79.4554C222.882 78.7589 223.762 78.136 224.679 77.5495C225.597 76.9631 226.514 76.4498 227.396 76.01C228.277 75.5701 229.122 75.2037 229.819 74.947C231.249 74.3973 232.241 74.1406 232.241 74.1406C232.241 74.1406 231.47 74.8006 230.516 75.9368C230.039 76.4866 229.489 77.1829 228.938 77.8793C228.388 78.6125 227.873 79.4189 227.396 80.2251C226.918 81.0315 226.516 81.8745 226.221 82.6442C226.075 83.0474 225.928 83.4139 225.817 83.7438C225.708 84.1103 225.561 84.4403 225.561 84.6968C225.304 86.0163 225.12 86.8595 225.12 86.8595L218.146 83.7073Z" fill="#CE1F2C"/>
<path d="M262.666 55.2271C260.904 53.9076 259.364 52.1482 258.739 49.9856C258.079 47.8597 258.409 45.5507 259.436 43.608C261.492 39.796 265.932 37.6701 270.191 37.8534C272.539 37.9267 274.962 38.6598 276.65 40.3825C274.998 41.0789 273.384 41.7753 271.731 42.435C271.842 36.3873 276.687 31.769 282.375 30.5226C287.807 29.3131 294.377 30.9624 297.496 35.8739C299.259 38.6596 299.442 42.1785 298.158 45.1841C297.644 42.3617 296.653 39.6128 294.231 37.8534C291.992 36.2407 289.092 35.764 286.376 36.0938C283.587 36.4238 280.761 37.6701 279.072 39.9794C278.081 41.3355 277.751 42.9847 277.347 44.5975C277.017 45.917 276.687 47.2733 276.32 48.5928C274.999 47.2733 273.751 45.6238 272.1 44.7075C271.108 44.1578 270.226 43.5712 269.125 43.3147C268.025 43.0582 266.851 43.0582 265.749 43.3147C263.584 43.8278 261.565 45.294 260.795 47.4566C259.803 50.169 261.088 53.0279 262.666 55.2271C261.969 54.2741 261.749 54.5306 262.666 55.2271Z" fill="#CE1F2C"/>
<path d="M289.9 12.1586C286.634 14.9443 283.367 17.7299 280.101 20.5156C279.623 20.9187 279.147 21.322 278.669 21.7251C280.101 17.6566 281.532 13.588 282.963 9.51948C283.184 8.93303 283.367 8.34667 283.588 7.79688C285.715 9.22635 287.808 10.6925 289.9 12.1586Z" fill="#CE1F2C"/>
<path d="M351.194 55.0814C356.882 59.4065 356.846 67.9098 351.854 72.7848C346.386 78.0995 337.136 77.3664 332.512 71.392C330.127 68.3131 329.282 64.2079 330.566 60.4693C335.192 46.7975 345.064 50.4263 351.194 55.0814Z" fill="#6DEEC0"/>
<path d="M351.192 55.0801C355.34 56.3629 357.873 60.3947 358.24 64.5732C358.68 69.3014 356.441 74.0297 352.697 76.9253C346.201 81.9469 336.219 81.0307 331.154 74.3231C328.181 70.4012 327.299 64.5366 330.529 60.468C330.676 63.2171 331.374 65.7827 333.062 67.9819C334.934 70.401 337.724 72.1605 340.769 72.5636C346.458 73.2967 351.891 69.5213 353.028 63.8767C353.652 60.6512 352.697 57.8657 351.192 55.0801Z" fill="#CE1F2C"/>
<path d="M230.773 86.9695C232.02 89.8285 233.525 92.3945 235.948 94.4837C238.04 96.2797 241.085 97.9656 243.949 97.3425C243.912 97.3425 243.839 97.3793 243.802 97.3793C246.334 96.8294 248.61 95.8031 250.482 93.9337C252.867 91.5146 254.005 88.4359 255.18 85.3203C258.666 92.1012 254.776 100.458 247.95 103.207C245.894 104.05 243.691 104.417 241.489 104.124C237.746 103.684 234.406 101.338 232.313 98.2956C230.112 95.0333 229.194 90.6716 230.773 86.9695Z" fill="#CE1F2C"/>
<path d="M224.093 83.5237C219.834 80.9947 216.055 77.9159 214.329 73.1142C213.668 71.2083 213.449 69.1189 213.668 67.103C213.962 64.7206 214.806 62.6313 215.834 60.4688C215.321 64.0975 215.284 67.7262 217.339 70.9517C219.504 74.2871 223.248 75.57 226.918 76.4129C226 78.7588 225.047 81.1412 224.093 83.5237Z" fill="#CE1F2C"/>
<path d="M263.914 77.6583C266.373 77.8783 268.723 78.0248 271.145 77.585C273.751 77.1084 276.32 76.2289 278.559 74.7261C280.651 73.2967 282.559 71.6105 284.101 69.5946C285.531 67.6886 286.706 65.6727 288.065 63.6934C288.469 68.2018 287.073 72.7468 283.991 76.1189C280.614 79.821 275.292 81.837 270.338 80.9573C267.841 80.4808 265.676 79.4177 263.914 77.6583Z" fill="#CE1F2C"/>
<path d="M370.902 55.2276C371.819 53.1384 372.627 51.0491 373.104 48.8133C373.545 46.6141 373.691 44.4149 373.58 42.2157C373.471 39.8332 372.883 37.3773 371.892 35.178C370.865 32.9788 369.323 31.2562 367.488 29.7168C369.69 30.7797 371.562 32.0259 373.213 33.8587C375.05 35.9113 376.444 38.5502 377.289 41.1526C378.243 44.0482 378.793 47.0173 378.866 50.0596C378.94 52.5153 378.645 54.9344 378.279 57.3903C375.821 56.6938 373.361 55.9607 370.902 55.2276Z" fill="#CE1F2C"/>
<path d="M94.8036 100.348C92.7116 106.615 87.4266 108.961 74.1404 106.616C71.2775 106.102 68.3779 105.663 65.4416 105.479C52.5591 104.71 39.7134 109.694 31.125 119.407C28.8128 122.01 26.684 124.979 25.1425 128.131C24.225 130.037 23.4175 131.98 22.6467 133.959C19.9308 140.96 17.5451 148.108 15.4897 155.328C11.1222 170.466 7.63548 185.897 4.95621 201.402C2.82746 213.827 1.02905 226.325 0.148194 238.898C0.111492 239.191 0.11142 239.448 0.0747178 239.741C0.0747178 239.887 0.0382036 240.035 0.0382036 240.181C0.0382036 240.253 0.0014653 240.547 0.0014653 240.401C0.0014653 242.856 -0.0352102 245.312 0.258409 247.768C0.698838 251.506 1.6164 255.208 3.01109 258.727C4.33237 262.027 6.0207 265.179 8.07603 268.111C9.83776 270.639 11.9665 272.802 14.0218 275.075C23.7846 285.814 32.5564 295.674 41.6586 306.12C44.7416 309.675 44.9251 318.765 42.8331 328.991C46.3565 325.363 64.5242 319.461 68.0476 315.833C73.6265 310.116 79.2052 304.397 84.7839 298.679C86.0685 297.36 87.353 296.04 88.6376 294.721C84.9307 292.485 81.3706 289.993 77.8838 287.463C73.4061 284.237 64.9646 265.691 60.6337 262.245C59.1656 267.267 52.4124 267.414 48.7421 264.298C44.8884 261.036 41.1816 257.627 37.438 254.255C35.1624 252.166 32.7033 250.224 31.382 247.327C30.5011 245.386 30.134 243.296 30.2074 241.134C30.2074 241.28 30.2074 241.427 30.2074 241.537C30.2808 236.442 30.7582 231.347 31.2352 226.289C31.8959 219.105 32.9235 211.92 34.1713 204.809C36.7039 190.478 39.8235 176.33 44.1543 162.402C45.3288 158.59 46.5767 154.741 48.0449 151.003C49.1826 148.071 50.5406 145.138 51.6783 142.243C51.6416 142.352 51.6049 142.426 51.5682 142.535C52.9997 140.264 54.6146 138.357 57.2204 137.404C58.615 136.892 60.1933 136.598 61.6615 136.781C62.5791 136.892 85.3345 138.284 85.3345 149.39C85.9952 145.578 92.7117 135.975 93.3724 132.163C94.4368 126.115 95.501 120.031 96.5654 113.983C96.8958 112.736 94.5833 101.777 94.8036 100.348Z" fill="#CE1F2C"/>
<path d="M52.3753 306.708C59.7524 283.469 77.1863 220.535 101.887 79.6758L249.54 105.516C229.391 220.388 222.748 307.367 220.913 337.093C220.435 344.937 219.518 352.707 218.161 360.441L217.462 364.399C216.215 371.547 210.783 374.992 203.773 377.852C191.477 382.873 160.611 384.156 125.67 378.035C86.3618 371.144 58.5414 360.735 49.5126 348.089C49.5126 348.089 44.3743 341.528 45.6221 334.343V334.308C47.2371 324.924 49.5125 315.724 52.3753 306.708Z" fill="#6DEEC0"/>
<path d="M124.973 381.81C157.639 387.527 190.634 387.344 205.205 381.369C212.215 378.51 219.592 374.332 221.244 365.022L221.941 361.063C223.299 353.256 224.254 345.229 224.73 337.276C226.676 305.643 233.355 219.802 253.321 106.139C253.688 104.05 252.294 102.07 250.202 101.704L102.548 75.8632C100.456 75.4966 98.4742 76.8894 98.1072 78.9787C73.8468 217.309 56.7435 280.279 48.7424 305.497C45.8062 314.77 43.4573 324.19 41.8423 333.574C40.3743 342.003 45.7328 349.408 46.4301 350.324C58.395 367.075 95.7216 376.677 124.973 381.81ZM245.1 108.595C225.612 220.79 219.005 305.424 217.096 336.836C216.62 344.533 215.702 352.231 214.381 359.781L213.682 363.74C212.876 368.395 209.792 371.253 202.305 374.295C191.001 378.913 161.272 380.379 126.295 374.258C87.5002 367.478 60.6339 357.105 52.5961 345.853C52.5594 345.816 52.5229 345.742 52.4862 345.705C52.4495 345.67 48.4122 340.317 49.3664 334.966C50.9447 325.876 53.22 316.787 56.0461 307.843C64.0473 282.662 81.0405 220.205 105.007 84.0735L245.1 108.595Z" fill="#CE1F2C"/>
<path d="M101.887 79.6765C103.502 70.5865 137.819 68.9738 178.595 76.1213C219.372 83.2686 251.119 96.427 249.505 105.517C247.926 114.607 213.573 116.22 172.796 109.073C132.057 101.925 100.309 88.7666 101.887 79.6765Z" fill="#6DEEC0"/>
<path d="M172.173 112.848C192.176 116.33 211.297 117.906 226.051 117.209C243.228 116.403 252.146 112.811 253.321 106.177C254.496 99.5425 247.339 93.1279 231.446 86.5303C217.793 80.8857 199.259 75.8275 179.293 72.3454C159.29 68.8634 140.168 67.2872 125.414 67.9837C108.237 68.7901 99.3182 72.3821 98.1436 79.0165C96.9691 85.6507 104.126 92.0649 120.018 98.6625C133.635 104.307 152.17 109.329 172.173 112.848ZM177.935 79.8594C197.167 83.2315 215.004 88.0332 228.107 93.4212C243.081 99.579 245.834 103.977 245.761 104.82C245.541 105.627 241.467 108.852 225.317 109.549C211.15 110.172 192.762 108.632 173.531 105.297C154.299 101.925 136.461 97.1233 123.358 91.7352C108.384 85.5776 105.631 81.1789 105.741 80.3358C105.961 79.5296 110.035 76.304 126.221 75.6077C140.315 74.9846 158.703 76.5239 177.935 79.8594Z" fill="#CE1F2C"/>
<path d="M166.373 145.542C194.377 150.454 209.022 150.637 221.024 148.401L221.867 143.782C223.96 143.306 228.363 146.678 230.419 146.054C216.509 229.404 212.141 291.972 210.931 314.185C210.747 317.886 210.38 321.551 209.902 325.216C208.288 329.505 204.177 331.777 199.112 333.684C188.872 337.569 162.557 340.758 133.231 335.627C100.236 329.871 77.2599 318.912 69.5891 308.832C69.5891 308.832 66.4695 305.057 66.1025 300.476C67.0568 296.517 68.1946 292.595 69.4791 288.673C75.2047 271.189 88.2707 225.227 106.402 124.393C117.229 132.383 130.809 139.311 166.373 145.542Z" fill="#CE1F2C"/>
<path d="M103.098 118.493C92.0878 116.404 81.0037 114.461 69.9196 112.701C66.3962 112.115 63.0929 111.675 59.4961 111.968C53.3667 112.481 47.2741 114.461 42.0992 117.76C36.6672 121.168 32.1527 126.117 30.8682 132.494C35.4928 122.561 47.2007 117.283 57.6976 116.587C59.8631 116.44 62.0653 116.513 64.2308 116.843C65.7355 117.1 67.2403 117.576 68.7083 117.943C74.6175 119.482 80.5633 120.949 86.4725 122.415C91.4639 123.661 96.492 124.87 101.52 126.007C102.034 123.478 102.548 120.985 103.098 118.493Z" fill="#6DEEC0"/>
<path d="M66.8735 290.25L29.1436 256.42L61.2949 295.566L66.8735 290.25Z" fill="#6DEEC0"/>
<path d="M101.044 106.434C100.566 109.22 94.7674 117.687 81.7748 115.415C68.7821 113.142 103.209 122.269 103.209 122.269L104.53 105.885L101.044 106.434Z" fill="#6DEEC0"/>
<path d="M48.1918 135.498C43.6773 140.446 40.5944 146.274 37.8784 152.321C34.832 159.103 32.4831 166.251 30.4645 173.434C26.3538 187.985 23.5643 202.977 22.4266 218.042C21.8761 225.262 21.6559 232.63 22.9038 239.813C22.9405 233.472 23.7111 227.168 24.6286 220.901C25.7298 213.57 27.0512 206.239 28.4825 198.945C31.382 184.284 34.7587 169.586 39.4198 155.401C41.6953 148.51 44.3013 141.692 48.1918 135.498Z" fill="#6DEEC0"/>
<path d="M66.2856 271.886C64.6339 278.594 57.9907 283.176 50.8338 276.102C43.6768 268.991 62.4683 289.664 62.4683 289.664L66.8359 283.139L68.8547 271.594L66.2856 271.886Z" fill="#6DEEC0"/>
<path d="M53.5498 285.961C56.3025 289.224 59.8626 295.967 57.477 303.922C55.2382 311.362 64.7076 289.259 64.7076 289.259L53.5498 285.961Z" fill="#6DEEC0"/>
<path d="M61.7346 315.211C64.0468 320.306 79.0947 333.024 95.7576 337.46C85.6277 339.292 72.6352 339.219 66.3225 348.602C61.9181 345.597 57.9907 342.224 56.9631 339.622C55.1647 335.041 61.7346 315.211 61.7346 315.211Z" fill="#CE1F2C"/>
<path d="M207.957 340.795C204.067 344.789 185.129 350.727 168.905 349.041C177.788 354.21 189.57 359.67 192.285 370.631C197.461 369.311 202.306 367.479 204.141 365.352C207.406 361.651 207.957 340.795 207.957 340.795Z" fill="#CE1F2C"/>
<path d="M206.305 159.727C205.279 165.298 204.58 169.147 203.59 174.756C201.057 189.159 198.709 203.601 196.542 218.079C194.268 232.96 192.139 247.879 190.193 262.833C188.358 277.129 186.523 291.423 184.872 305.717C183.476 317.557 182.192 329.396 180.907 341.235C180.87 341.565 180.835 341.931 180.798 342.261C184.579 342.592 188.395 342.921 192.176 343.214C193.239 343.288 194.268 343.397 195.332 343.471C195.736 343.508 196.69 343.764 197.057 343.617C197.313 343.508 197.241 343.031 197.241 342.701C197.387 341.198 197.497 339.732 197.643 338.23C198.379 329.873 199.112 321.552 199.919 313.195C200.801 303.848 201.718 294.501 202.708 285.191C203.774 275.002 204.875 264.849 206.049 254.696C207.223 244.396 208.47 234.133 209.829 223.87C211.15 213.791 212.509 203.748 213.939 193.705C215.298 184.212 216.729 174.719 218.271 165.262C218.712 162.477 218.858 161.45 219.335 158.701C215.555 159.471 208.837 159.838 206.305 159.727Z" fill="#6DEEC0"/>
<path d="M114.366 124.248C113.045 132.972 111.687 141.695 110.329 150.383C108.494 161.964 106.585 173.51 104.566 185.055C102.401 197.408 100.125 209.76 97.6297 222.076C95.2072 234.062 92.6748 246.011 89.9954 257.959C87.6832 268.296 85.1508 278.596 82.5083 288.896C82.4349 289.188 82.3615 289.446 82.2881 289.738C85.4078 280.832 88.3806 271.888 91.2067 262.908C94.8402 251.399 98.1067 239.743 101.226 228.088C104.456 215.955 107.539 203.786 110.475 191.581C113.338 179.778 116.054 167.902 118.697 156.026C120.825 146.387 122.808 136.71 124.79 127.034C124.863 126.74 124.899 126.447 124.973 126.191C121.449 125.494 117.926 124.871 114.366 124.248Z" fill="#6DEEC0"/>
<path d="M190.706 183.404C190.45 184.833 190.156 186.262 189.9 187.693C189.166 191.541 188.467 195.426 187.733 199.275C186.669 204.993 185.605 210.71 184.54 216.392C183.22 223.392 181.934 230.357 180.613 237.357C179.182 244.981 177.751 252.569 176.356 260.193C174.925 267.926 173.457 275.661 172.026 283.394C170.668 290.579 169.346 297.762 167.988 304.947C166.85 311.031 165.712 317.079 164.574 323.163C163.768 327.526 162.923 331.923 162.116 336.286C161.859 337.641 161.601 338.997 161.345 340.354C161.234 341.013 160.941 341.82 160.941 342.48C160.941 342.553 160.904 342.664 160.904 342.736C163.621 343.14 166.336 343.58 169.053 343.982C169.237 342.553 169.456 341.124 169.639 339.658C170.154 335.772 170.705 331.851 171.218 327.965C171.989 322.21 172.76 316.456 173.529 310.701C174.484 303.664 175.438 296.626 176.393 289.552C177.421 281.892 178.448 274.232 179.512 266.534C180.577 258.727 181.604 250.956 182.668 243.149C183.66 235.891 184.614 228.671 185.605 221.414C186.413 215.293 187.257 209.172 188.065 203.05C188.652 198.652 189.238 194.217 189.863 189.818C190.156 187.728 190.413 185.64 190.706 183.588C190.671 183.588 190.706 183.514 190.706 183.404Z" fill="#6DEEC0"/>
<path d="M98.2169 347.906C97.6298 351.315 111.723 356.593 129.708 359.745C147.692 362.897 162.739 362.677 163.327 359.305C163.914 355.897 149.821 350.619 131.836 347.467C113.889 344.315 98.8042 344.498 98.2169 347.906Z" fill="#CE1F2C"/>
<path d="M94.6205 142.024C95.9785 134.363 95.2444 124.54 86.8028 122.011C78.7651 119.629 101.851 120.838 101.851 120.838L99.9791 135.426L94.6205 142.024Z" fill="#6DEEC0"/>
<path d="M199.37 172.336L221.06 171.529L220.437 183.369L197.277 184.248L199.37 172.336Z" fill="#CE1F2C"/>
<path d="M147.619 154.743C147.325 156.357 148.425 157.932 150.041 158.189C151.656 158.446 153.235 157.382 153.491 155.77C153.785 154.157 152.684 152.581 151.068 152.324C149.454 152.068 147.912 153.094 147.619 154.743Z" fill="#6DEEC0"/>
<path d="M135.507 200.01C135.214 201.623 136.315 203.199 137.929 203.456C139.545 203.748 141.122 202.649 141.38 201.037C141.673 199.423 140.572 197.848 138.957 197.591C137.343 197.335 135.801 198.397 135.507 200.01Z" fill="#6DEEC0"/>
<path d="M150.005 183.515C149.71 185.129 150.811 186.704 152.427 186.961C154.041 187.254 155.62 186.155 155.876 184.542C156.171 182.93 155.07 181.353 153.454 181.098C151.84 180.804 150.298 181.866 150.005 183.515Z" fill="#6DEEC0"/>
<path d="M135.544 166.986C135.25 168.599 136.351 170.175 137.966 170.432C139.58 170.725 141.159 169.625 141.415 168.013C141.71 166.399 140.609 164.824 138.993 164.567C137.379 164.274 135.837 165.374 135.544 166.986Z" fill="#6DEEC0"/>
<path d="M161.787 145.911C160.942 150.749 164.172 155.368 169.017 156.211C173.861 157.054 178.487 153.828 179.33 148.99C180.174 144.152 176.945 139.534 172.1 138.69C167.256 137.848 162.63 141.073 161.787 145.911Z" fill="#6DEEC0"/>
<path d="M137.489 139.13C137.048 141.549 138.7 143.858 141.122 144.261C143.544 144.702 145.857 143.052 146.261 140.633C146.664 138.213 145.049 135.904 142.627 135.501C140.205 135.098 137.892 136.711 137.489 139.13Z" fill="#6DEEC0"/>
<path d="M184.101 148.805C184.101 148.805 184.064 148.585 183.954 148.219C183.881 148 183.808 147.706 183.734 147.413C183.66 147.047 183.514 146.716 183.367 146.349C183.073 145.616 182.67 144.811 182.155 144.004C181.899 143.601 181.605 143.197 181.312 142.831C181.017 142.427 180.65 142.098 180.283 141.731C179.916 141.402 179.549 141.072 179.147 140.815C178.78 140.522 178.339 140.302 177.972 140.082C177.164 139.679 176.393 139.386 175.733 139.238C175.403 139.129 175.072 139.129 174.816 139.092C174.558 139.056 174.302 139.02 174.117 139.02C173.75 139.02 173.531 139.02 173.531 139.02C173.531 139.02 173.715 139.092 174.082 139.238C174.265 139.312 174.484 139.386 174.705 139.495C174.925 139.606 175.183 139.716 175.439 139.899C175.989 140.228 176.54 140.669 177.055 141.218C177.311 141.511 177.568 141.805 177.788 142.135C178.009 142.464 178.228 142.794 178.412 143.125C178.595 143.491 178.743 143.821 178.889 144.187C179.036 144.554 179.145 144.883 179.219 145.25C179.403 145.947 179.477 146.606 179.477 147.156C179.477 147.45 179.477 147.669 179.477 147.889C179.477 148.072 179.477 148.256 179.44 148.439C179.403 148.805 179.366 149.025 179.366 149.025L184.101 148.805Z" fill="#CE1F2C"/>
<path d="M139.471 57.0245C140.572 51.2699 145.967 47.4579 151.472 46.5049C156.978 45.5153 163.218 47.8246 166.374 52.2962C173.787 40.8603 186.45 36.1686 199.149 44.379C216.069 33.4563 242.494 42.8763 245.393 62.9991C251.266 59.3336 257.836 59.6636 264.186 63.5489C272.7 68.7904 273.655 78.6501 269.837 85.0645C275.673 89.0963 281.179 96.0237 279.711 104.417C278.023 114.094 270.756 120.692 262.79 121.021C266.351 134.033 257.873 148.658 242.164 149.465C227.96 150.198 218.051 137.736 219.152 124.247C214.49 127.069 205.315 125.97 200.544 122.964C196.322 120.288 192.762 116.293 190.855 111.711C185.056 111.015 179.036 110.135 172.833 109.072C132.057 101.925 104.236 91.2588 101.924 79.6763C97.5933 58.8937 120.642 43.8293 139.471 57.0245Z" fill="#6DEEC0"/>
<path d="M236.512 152.947C238.42 153.277 240.366 153.386 242.348 153.277C250.643 152.836 257.762 149.062 262.424 142.61C266.241 137.296 267.966 130.661 267.269 124.174C275.38 121.975 281.803 114.644 283.454 105.077C284.776 97.4901 281.509 89.7563 274.572 83.8918C277.435 76.048 275.307 65.9316 266.131 60.287C260.149 56.6217 253.799 55.6687 247.963 57.5747C244.366 46.9085 234.384 38.7348 221.757 36.4989C213.719 35.1061 205.755 36.3157 199.113 39.9077C196.249 38.3316 193.314 37.2687 190.376 36.7554C181.312 35.1794 172.466 38.7348 165.933 46.3954C163.51 44.5627 160.575 43.2797 157.418 42.6934C155.179 42.2902 152.941 42.2901 150.811 42.6567C145.857 43.5363 140.462 46.4686 137.562 51.3436C134.92 49.9873 132.13 49.0709 129.267 48.5945C120.275 47.0185 111.137 49.914 104.86 56.365C98.7311 62.7061 96.2353 71.4296 98.1071 80.373C101.447 97.0503 140.205 107.203 172.136 112.775C177.531 113.728 182.963 114.534 188.249 115.194C190.56 119.556 194.12 123.404 198.451 126.153C200.69 127.583 203.737 128.682 206.967 129.232C208.618 129.525 211.921 129.928 215.372 129.415C216.619 141.291 225.024 150.93 236.512 152.947ZM256.221 64.4655C258.166 64.7954 260.149 65.6016 262.167 66.8111C268.589 70.7697 269.434 78.2104 266.534 83.0852L264.736 86.1643L267.672 88.1802C269.984 89.7929 277.362 95.6208 275.967 103.721C274.646 111.235 269.067 116.88 262.681 117.136L257.836 117.32L259.12 121.975C260.625 127.473 259.561 133.52 256.221 138.102C252.954 142.61 247.889 145.287 241.981 145.579C240.585 145.653 239.191 145.579 237.87 145.323C228.694 143.71 222.161 134.584 222.969 124.504L223.592 117.026L217.17 120.912C215.371 122.011 211.921 122.305 208.324 121.681C206.085 121.278 203.994 120.545 202.599 119.666C198.965 117.356 195.955 113.874 194.378 110.172L193.497 108.12L191.258 107.863C185.422 107.167 179.44 106.287 173.457 105.261C125.634 96.9039 107.026 85.8344 105.631 78.8702C104.31 72.4559 106.035 66.2246 110.366 61.7529C114.843 57.1346 121.413 55.0455 127.909 56.1818C131.139 56.7316 134.296 58.0878 137.232 60.1404L142.076 63.5491L143.214 57.7211C144.022 53.506 148.279 50.9036 152.096 50.244C153.345 50.0241 154.702 50.0241 156.06 50.2806C159.033 50.7938 161.676 52.3697 163.18 54.4956L166.448 59.1141L169.53 54.3492C174.521 46.6518 181.605 43.0232 189.019 44.306C191.662 44.7826 194.378 45.8821 197.02 47.5681L199.113 48.9242L201.204 47.5681C206.636 44.0494 213.463 42.8033 220.473 44.0129C229.832 45.6622 239.962 52.2966 241.54 63.5125L242.385 69.3403L247.376 66.2247C250.202 64.5388 253.138 63.9157 256.221 64.4655Z" fill="#CE1F2C"/>
<path d="M242.787 60.1777C242.053 61.314 241.282 62.4136 240.732 63.6231C240.072 65.0892 239.631 66.6287 239.338 68.2416C238.897 70.8805 238.897 73.7397 239.447 76.3787C240.109 74.1795 241.21 72.0536 242.531 70.2209C243.302 69.1946 244.145 68.2049 245.174 67.3985C246.017 66.7388 247.009 66.3355 247.926 65.8225C246.238 63.9531 244.512 62.047 242.787 60.1777Z" fill="#CE1F2C"/>
<path d="M266.315 119.445C266.315 119.445 266.168 119.261 265.874 118.895C265.727 118.712 265.581 118.492 265.397 118.272C265.14 117.979 264.882 117.612 264.552 117.245C264.259 116.842 263.929 116.549 263.562 116.183C263.231 115.816 262.827 115.486 262.424 115.12C261.654 114.423 260.736 113.763 259.854 113.177C258.974 112.591 258.019 112.041 257.176 111.601C256.294 111.161 255.487 110.758 254.754 110.501C253.321 109.915 252.368 109.658 252.368 109.658C252.368 109.658 253.101 110.355 254.055 111.491C254.533 112.041 255.047 112.737 255.597 113.47C256.111 114.203 256.625 115.01 257.102 115.853C257.543 116.696 257.947 117.502 258.24 118.309C258.386 118.712 258.533 119.078 258.644 119.445C258.753 119.811 258.864 120.141 258.9 120.398C259.12 121.717 259.268 122.597 259.268 122.597L266.315 119.445Z" fill="#CE1F2C"/>
<path d="M222.345 90.1226C224.142 88.8398 225.684 87.117 226.383 84.9911C227.08 82.8652 226.822 80.5561 225.795 78.6134C223.812 74.7647 219.409 72.5655 215.188 72.6388C212.839 72.6755 210.379 73.3354 208.691 75.0214C210.307 75.7545 211.921 76.4509 213.573 77.1838C213.573 71.1361 208.838 66.4077 203.186 65.0516C197.754 63.7321 191.184 65.2348 187.954 70.1098C186.156 72.8587 185.863 76.3774 187.111 79.4197C187.698 76.634 188.725 73.885 191.147 72.1624C193.423 70.5862 196.359 70.1831 199.039 70.5862C201.828 70.9895 204.654 72.2722 206.269 74.6181C207.223 76.0109 207.553 77.6604 207.92 79.2731C208.215 80.5927 208.545 81.949 208.838 83.2685C210.196 81.949 211.48 80.3727 213.133 79.4931C214.123 78.9799 215.041 78.3935 216.141 78.1368C217.244 77.8803 218.417 77.9171 219.518 78.2103C221.684 78.7601 223.666 80.2627 224.4 82.4253C225.317 85.1009 223.996 87.9601 222.345 90.1226C223.299 89.4262 223.041 89.1696 222.345 90.1226Z" fill="#CE1F2C"/>
<path d="M195.955 46.5403C199.148 49.3993 202.379 52.2216 205.572 55.0807C206.048 55.4838 206.489 55.8869 206.967 56.3267C205.609 52.2215 204.25 48.1164 202.892 44.0112C202.709 43.4247 202.488 42.8383 202.305 42.252C200.214 43.6814 198.084 45.1108 195.955 46.5403Z" fill="#CE1F2C"/>
<path d="M133.855 88.2536C128.056 92.4688 127.983 100.973 132.864 105.957C138.223 111.382 147.509 110.832 152.243 104.931C154.702 101.889 155.619 97.7836 154.409 94.0449C150.005 80.2632 140.058 83.7086 133.855 88.2536Z" fill="#6DEEC0"/>
<path d="M133.855 88.252C129.671 89.4615 127.065 93.4201 126.625 97.5985C126.111 102.327 128.24 107.092 131.91 110.061C138.333 115.229 148.316 114.496 153.491 107.898C156.538 104.013 157.565 98.1851 154.409 94.0433C154.188 96.7556 153.491 99.3212 151.729 101.52C149.821 103.903 146.995 105.589 143.911 105.919C138.223 106.542 132.864 102.657 131.837 96.9754C131.286 93.7499 132.277 91.001 133.855 88.252Z" fill="#CE1F2C"/>
<path d="M253.616 122.486C252.294 125.345 250.752 127.874 248.293 129.89C246.165 131.65 243.081 133.262 240.22 132.566C240.257 132.566 240.292 132.603 240.366 132.603C237.833 131.98 235.594 130.917 233.759 129.011C231.411 126.555 230.345 123.439 229.245 120.287C225.649 126.995 229.355 135.425 236.145 138.321C238.164 139.2 240.366 139.604 242.568 139.383C246.312 139.017 249.688 136.744 251.853 133.739C254.129 130.513 255.121 126.188 253.616 122.486Z" fill="#CE1F2C"/>
<path d="M260.405 119.153C264.699 116.734 268.554 113.692 270.389 108.927C271.085 107.057 271.38 104.932 271.159 102.952C270.902 100.57 270.131 98.4438 269.104 96.2812C269.544 99.9467 269.508 103.575 267.379 106.727C265.177 110.026 261.359 111.199 257.689 112.005C258.57 114.351 259.487 116.771 260.405 119.153Z" fill="#CE1F2C"/>
<path d="M220.657 112.518C218.197 112.664 215.849 112.811 213.427 112.298C210.821 111.748 208.252 110.832 206.086 109.292C204.03 107.826 202.158 106.103 200.654 104.051C199.26 102.108 198.122 100.055 196.8 98.0762C196.322 102.585 197.608 107.13 200.654 110.575C203.958 114.314 209.242 116.476 214.234 115.67C216.692 115.23 218.859 114.24 220.657 112.518Z" fill="#CE1F2C"/>
<path d="M114.146 87.9976C113.265 85.8717 112.494 83.7825 112.054 81.5466C111.65 79.3474 111.577 77.1482 111.687 74.9122C111.834 72.5298 112.458 70.0742 113.522 67.9116C114.586 65.7124 116.164 64.0628 118.036 62.5234C115.797 63.5497 113.925 64.7594 112.237 66.5555C110.365 68.5713 108.897 71.1736 108.017 73.776C107.026 76.635 106.401 79.6038 106.291 82.6461C106.181 85.1019 106.401 87.521 106.732 89.9768C109.191 89.3538 111.65 88.6573 114.146 87.9976Z" fill="#CE1F2C"/>
</g>
<defs>
<filter id="filter0_d_120_2" x="0" y="0" width="487" height="392" filterUnits="userSpaceOnUse" color-interpolation-filters="sRGB">
<feFlood flood-opacity="0" result="BackgroundImageFix"/>
<feColorMatrix in="SourceAlpha" type="matrix" values="0 0 0 0 0 0 0 0 0 0 0 0 0 0 0 0 0 0 127 0" result="hardAlpha"/>
<feOffset dx="5" dy="5"/>
<feComposite in2="hardAlpha" operator="out"/>
<feColorMatrix type="matrix" values="0 0 0 0 0 0 0 0 0 0 0 0 0 0 0 0 0 0 0.25 0"/>
<feBlend mode="normal" in2="BackgroundImageFix" result="effect1_dropShadow_120_2"/>
<feBlend mode="normal" in="SourceGraphic" in2="effect1_dropShadow_120_2" result="shape"/>
</filter>
</defs>
</svg>
