<svg width="701" height="147" viewBox="0 0 701 147" fill="none" xmlns="http://www.w3.org/2000/svg">
<path d="M670.905 54.9769V118.497H700.5V132.211H655.928V54.9769H635.717V41.2624H655.928V15.1975H670.905V41.2624H694.906V54.9769H670.905Z" fill="#F8F4FC"/>
<path d="M554.15 132.209V41.2601H568.406V55.8769H569.308C572.316 50.9445 576.526 46.9745 581.94 43.9669C587.354 40.9594 593.609 39.4556 600.707 39.4556C611.655 39.4556 620.196 42.8241 626.332 49.561C632.587 56.1777 635.715 65.6215 635.715 77.8924V132.209H620.738V80.4187C620.738 71.7569 618.753 65.0801 614.783 60.3883C610.813 55.5762 604.978 53.1701 597.279 53.1701C589.098 53.1701 582.361 55.8769 577.068 61.2906C571.774 66.7042 569.128 73.7419 569.128 82.4037V132.209H554.15Z" fill="#F8F4FC"/>
<path d="M544.621 91.4265H467.747C468.71 100.088 472.018 107.066 477.672 112.359C483.326 117.653 490.364 120.299 498.785 120.299C505.763 120.299 511.598 118.735 516.289 115.607C521.102 112.359 524.59 108.149 526.756 102.976H542.455C539.688 111.637 534.455 118.976 526.756 124.991C519.177 131.006 509.853 134.014 498.785 134.014C490.124 134.014 482.184 131.969 474.965 127.878C467.867 123.668 462.213 117.953 458.003 110.735C453.912 103.517 451.867 95.5168 451.867 86.7346C451.867 77.9525 453.912 69.9524 458.003 62.7342C462.213 55.516 467.867 49.8618 474.965 45.7715C482.184 41.5609 490.124 39.4556 498.785 39.4556C507.327 39.4556 515.086 41.5007 522.064 45.591C529.042 49.6813 534.515 55.3957 538.485 62.7342C542.576 70.0727 544.621 78.4337 544.621 87.8174V91.4265ZM498.785 53.1701C490.845 53.1701 484.108 55.516 478.574 60.2078C473.161 64.8996 469.732 71.1554 468.289 78.9751H528.921C527.478 71.396 524.049 65.2004 518.635 60.3883C513.342 55.5762 506.725 53.1701 498.785 53.1701Z" fill="#F8F4FC"/>
<path d="M400.932 134.014C392.15 134.014 384.15 131.969 376.932 127.878C369.834 123.788 364.24 118.134 360.15 110.916C356.059 103.697 354.014 95.6371 354.014 86.7346C354.014 77.8322 356.059 69.7719 360.15 62.5537C364.24 55.3356 369.834 49.6813 376.932 45.591C384.15 41.5007 392.15 39.4556 400.932 39.4556C408.752 39.4556 415.669 41.0195 421.685 44.1474C427.82 47.2753 432.752 51.3656 436.482 56.4183C440.332 61.3507 442.918 66.644 444.241 72.2983H428.903C426.978 66.8846 423.549 62.3733 418.617 58.7642C413.684 55.0348 407.79 53.1701 400.932 53.1701C391.669 53.1701 384.15 56.298 378.376 62.5537C372.601 68.6892 369.714 76.7495 369.714 86.7346C369.714 96.7198 372.601 104.84 378.376 111.096C384.15 117.231 391.669 120.299 400.932 120.299C407.79 120.299 413.684 118.495 418.617 114.886C423.549 111.156 426.978 106.585 428.903 101.171H444.241C442.918 106.825 440.332 112.179 436.482 117.231C432.752 122.164 427.82 126.194 421.685 129.322C415.669 132.45 408.752 134.014 400.932 134.014Z" fill="#F8F4FC"/>
<path d="M196.828 134.009C188.888 134.009 181.67 132.024 175.174 128.054C168.798 124.084 163.745 118.55 160.015 111.452C156.286 104.234 154.421 95.9931 154.421 86.7298C154.421 77.4664 156.286 69.2856 160.015 62.1878C163.745 54.9696 168.798 49.3755 175.174 45.4055C181.67 41.4355 188.888 39.4506 196.828 39.4506C203.685 39.4506 209.881 41.0144 215.415 44.1423C221.069 47.1498 225.34 51.0597 228.227 55.8719H229.13V15.1976H244.107L244.107 132.204H229.851V117.046H228.949C225.821 122.219 221.37 126.37 215.595 129.498C209.821 132.505 203.565 134.009 196.828 134.009ZM200.076 120.294C208.738 120.294 215.716 117.287 221.009 111.272C226.423 105.257 229.13 97.0758 229.13 86.7298C229.13 76.3837 226.423 68.2029 221.009 62.1878C215.716 56.1726 208.738 53.165 200.076 53.165C190.933 53.165 183.655 56.1726 178.241 62.1878C172.828 68.0826 170.121 76.2634 170.121 86.7298C170.121 97.0758 172.828 105.257 178.241 111.272C183.655 117.287 190.933 120.294 200.076 120.294Z" fill="#F8F4FC"/>
<path d="M346.392 91.4204H269.518C270.481 100.082 273.789 107.06 279.443 112.353C285.097 117.646 292.135 120.293 300.556 120.293C307.534 120.293 313.369 118.729 318.06 115.601C322.873 112.353 326.361 108.142 328.527 102.969H344.226C341.459 111.631 336.226 118.97 328.527 124.985C320.948 131 311.624 134.008 300.556 134.008C291.895 134.008 283.955 131.962 276.736 127.872C269.638 123.662 263.984 117.947 259.774 110.729C255.683 103.511 253.638 95.5107 253.638 86.7285C253.638 77.9464 255.683 69.9463 259.774 62.7281C263.984 55.5099 269.638 49.8557 276.736 45.7654C283.955 41.5548 291.895 39.4495 300.556 39.4495C309.098 39.4495 316.857 41.4946 323.835 45.5849C330.813 49.6752 336.286 55.3896 340.256 62.7281C344.347 70.0666 346.392 78.4276 346.392 87.8113V91.4204ZM300.556 53.164C292.616 53.164 285.879 55.5099 280.345 60.2017C274.932 64.8935 271.503 71.1493 270.06 78.969H330.692C329.249 71.3899 325.82 65.1943 320.406 60.3822C315.113 55.5701 308.496 53.164 300.556 53.164Z" fill="#F8F4FC"/>
<path d="M91.3584 0.558594H67.0133C64.2912 0.558594 62.0864 2.76339 62.0864 5.48551V24.8852C62.0864 27.6073 59.8816 29.8121 57.1595 29.8121H32.8144C30.8529 29.8121 28.9745 30.5912 27.5888 31.9769L2.66476 56.9009C1.27907 58.2866 0.5 60.1681 0.5 62.1265V112.646C0.5 115.368 2.70479 117.573 5.42691 117.573H26.3663C29.0884 117.573 31.2932 115.368 31.2932 112.646V63.9926C31.2932 61.2705 33.498 59.0657 36.2201 59.0657H57.1595C59.8816 59.0657 62.0864 56.8609 62.0864 54.1388V35.9708C62.0864 33.2487 64.2912 31.0439 67.0133 31.0439H87.9527C90.6748 31.0439 92.8796 33.2487 92.8796 35.9708V112.646C92.8796 115.368 90.6748 117.573 87.9527 117.573H36.2201C33.498 117.573 31.2932 119.778 31.2932 122.5V141.899C31.2932 144.622 33.498 146.826 36.2201 146.826H91.1952C93.1475 146.826 95.0197 146.053 96.4054 144.677L121.493 119.741C122.888 118.355 123.673 116.467 123.673 114.5V31.8537C123.673 30.5481 123.152 29.2948 122.229 28.371L96.584 2.72336C95.1983 1.33766 93.3169 0.558594 91.3584 0.558594Z" fill="#DCC8F0"/>
</svg>
