<svg width="487" height="390" viewBox="0 0 487 390" fill="none" xmlns="http://www.w3.org/2000/svg">
<g filter="url(#filter0_d_152_3)">
<path d="M389.987 66.9824C391.933 73.2868 397.18 75.7427 410.541 73.6535C413.439 73.2135 416.34 72.8104 419.238 72.6637C432.121 72.1506 444.857 77.3922 453.299 87.2519C455.575 89.9277 457.63 92.9332 459.098 96.0854C459.978 98.0279 460.749 99.971 461.483 101.95C464.052 109.024 466.291 116.208 468.237 123.466C472.311 138.676 475.504 154.181 477.852 169.759C479.761 182.221 481.303 194.756 481.926 207.365C481.926 207.658 481.963 207.915 481.963 208.208C481.963 208.355 481.963 208.502 482 208.648C482 208.722 482 209.051 482 208.868C481.963 211.324 481.963 213.78 481.596 216.235C481.082 219.974 480.091 223.64 478.623 227.122C477.229 230.42 475.467 233.536 473.374 236.394C471.577 238.887 469.41 241.012 467.319 243.248C457.336 253.805 448.38 263.519 439.058 273.745C435.902 277.226 435.535 286.316 437.444 296.616C433.993 292.914 415.936 286.647 412.485 282.981C407.017 277.154 401.548 271.326 396.079 265.497C394.832 264.141 393.547 262.821 392.3 261.466C396.044 259.303 399.639 256.884 403.163 254.428C407.677 251.275 416.486 232.876 420.89 229.578C422.248 234.599 429.002 234.929 432.745 231.886C436.636 228.697 440.453 225.398 444.27 222.063C446.582 220.047 449.114 218.104 450.436 215.246C451.353 213.303 451.757 211.213 451.757 209.088C451.757 209.235 451.757 209.381 451.757 209.49C451.794 204.397 451.427 199.301 451.06 194.206C450.51 186.986 449.665 179.802 448.564 172.691C446.325 158.323 443.462 144.101 439.425 130.1C438.324 126.251 437.149 122.403 435.755 118.627C434.69 115.658 433.368 112.689 432.305 109.794C432.341 109.904 432.378 109.977 432.415 110.087C431.02 107.814 429.443 105.835 426.872 104.846C425.478 104.332 423.9 104.002 422.432 104.149C421.514 104.222 398.759 105.212 398.539 116.318C397.951 112.506 391.418 102.756 390.831 98.9444C389.876 92.8599 388.959 86.7754 388.004 80.6908C387.674 79.298 390.208 68.3753 389.987 66.9824Z" fill="black"/>
<path d="M428.377 274.074C421.441 250.727 405.255 187.463 383.308 46.127L235.176 69.0721C253.087 184.348 258.006 271.399 259.253 301.161C259.583 309.005 260.354 316.812 261.566 324.584L262.19 328.541C263.291 335.689 268.649 339.245 275.622 342.25C287.807 347.528 318.638 349.397 353.725 343.972C393.144 337.851 421.184 327.992 430.47 315.53C430.47 315.53 435.755 309.042 434.617 301.858V301.822C433.15 292.438 431.057 283.165 428.377 274.074Z" fill="#6DEEC0"/>
<path d="M354.313 347.785C321.537 352.843 288.579 352.038 274.082 345.806C267.145 342.801 259.841 338.475 258.373 329.165L257.748 325.206C256.538 317.362 255.73 309.337 255.4 301.382C254.079 269.714 249.05 183.761 231.359 69.7325C231.029 67.6433 232.461 65.664 234.552 65.334L382.684 42.3891C384.776 42.0593 386.757 43.4887 387.087 45.578C408.632 184.348 424.487 247.648 432.012 273.012C434.764 282.322 436.929 291.816 438.361 301.199C439.683 309.666 434.177 316.96 433.443 317.877C421.185 334.37 383.638 343.241 354.313 347.785ZM239.58 72.2983C256.868 184.824 261.786 269.604 263.106 301.015C263.438 308.713 264.172 316.446 265.345 323.998L265.97 327.956C266.704 332.611 269.713 335.543 277.127 338.732C288.321 343.57 318.013 345.623 353.101 340.198C392.043 334.151 419.092 324.327 427.351 313.257C427.388 313.222 427.423 313.185 427.46 313.111C427.497 313.075 431.645 307.834 430.8 302.445C429.369 293.318 427.314 284.191 424.634 275.175C417.111 249.848 401.365 187.06 380.041 50.5261L239.58 72.2983Z" fill="black"/>
<path d="M383.308 46.127C381.875 37.0002 347.596 34.7277 306.672 41.0688C265.786 47.4098 233.781 59.9454 235.176 69.072C236.607 78.1988 270.888 80.4713 311.81 74.1302C352.734 67.8258 384.739 55.2536 383.308 46.127Z" fill="#6DEEC0"/>
<path d="M312.398 77.9422C292.359 81.0576 273.199 82.2306 258.445 81.241C241.268 80.1047 232.424 76.3295 231.396 69.6586C230.369 62.9877 237.636 56.7198 253.674 50.452C267.437 45.064 286.045 40.3725 306.085 37.2936C326.125 34.1781 345.283 33.005 360.038 33.9947C377.214 35.1309 386.06 38.9063 387.087 45.5773C388.115 52.2482 380.848 58.5159 364.81 64.7836C351.082 70.1717 332.475 74.8266 312.398 77.9422ZM307.26 44.8809C287.954 47.8865 270.043 52.3582 256.831 57.4529C241.746 63.3175 238.92 67.6426 238.957 68.4857C239.14 69.2921 243.14 72.5908 259.327 73.6171C273.457 74.4968 291.881 73.3607 311.187 70.355C330.492 67.3494 348.404 62.8776 361.616 57.7827C376.701 51.9181 379.527 47.5933 379.453 46.7502C379.27 45.9438 375.27 42.6449 359.083 41.6186C344.99 40.7024 326.565 41.8753 307.26 44.8809Z" fill="black"/>
<path d="M317.537 110.747C289.459 115.108 274.815 114.999 262.85 112.506L262.116 107.888C260.061 107.375 255.546 110.637 253.526 109.977C265.786 193.584 268.942 256.224 269.713 278.472C269.86 282.175 270.117 285.84 270.52 289.542C272.061 293.83 276.1 296.213 281.163 298.228C291.331 302.298 317.572 306.037 347.008 301.454C380.113 296.323 403.272 285.84 411.164 275.907C411.164 275.907 414.357 272.205 414.798 267.624C413.916 263.628 412.852 259.669 411.677 255.784C406.282 238.19 394.133 191.97 377.985 90.8438C366.974 98.5409 353.211 105.212 317.537 110.747Z" fill="black"/>
<path d="M381.362 84.9433C392.409 83.074 403.53 81.3511 414.651 79.775C418.212 79.2618 421.514 78.8588 425.112 79.2621C431.204 79.8851 437.259 82.011 442.398 85.3831C447.756 88.9018 452.161 93.9234 453.335 100.338C448.931 90.2947 437.333 84.7967 426.835 83.8804C424.671 83.6971 422.469 83.7337 420.302 84.027C418.798 84.2469 417.293 84.6867 415.788 85.0531C409.842 86.4826 403.897 87.8021 397.914 89.1584C392.886 90.2946 387.858 91.3942 382.793 92.4572C382.316 89.9648 381.838 87.4357 381.362 84.9433Z" fill="#6DEEC0"/>
<path d="M414.21 257.398L452.602 224.264L419.643 262.786L414.21 257.398Z" fill="#6DEEC0"/>
<path d="M383.638 72.959C384.077 75.7447 389.693 84.3215 402.722 82.3056C415.752 80.2897 381.178 88.7566 381.178 88.7566L380.187 72.3359L383.638 72.959Z" fill="#6DEEC0"/>
<path d="M435.902 103.014C440.306 108.035 443.278 113.937 445.886 120.058C448.784 126.912 451.023 134.096 452.895 141.28C456.711 155.904 459.245 170.97 460.088 186.034C460.492 193.254 460.566 200.658 459.171 207.769C459.245 201.428 458.62 195.124 457.814 188.82C456.859 181.452 455.684 174.122 454.4 166.791C451.757 152.093 448.71 137.321 444.307 123.027C442.142 116.136 439.646 109.281 435.902 103.014Z" fill="#6DEEC0"/>
<path d="M415.128 238.997C416.67 245.742 423.203 250.471 430.47 243.506C437.737 236.543 418.579 256.849 418.579 256.849L414.357 250.214L412.559 238.631L415.128 238.997Z" fill="#6DEEC0"/>
<path d="M427.607 253.328C424.817 256.554 421.111 263.189 423.313 271.215C425.405 278.729 416.377 256.445 416.377 256.445L427.607 253.328Z" fill="#6DEEC0"/>
<path d="M418.836 282.432C416.449 287.49 401.144 299.915 384.372 304.02C394.465 306.037 407.458 306.219 413.587 315.749C418.065 312.817 422.028 309.556 423.13 306.953C425.038 302.371 418.836 282.432 418.836 282.432Z" fill="black"/>
<path d="M272.136 305.158C275.953 309.226 294.782 315.531 311.041 314.174C302.048 319.16 290.193 324.402 287.257 335.324C282.119 333.895 277.31 331.988 275.512 329.825C272.319 326.014 272.136 305.158 272.136 305.158Z" fill="black"/>
<path d="M277.347 124.125C278.265 129.733 278.889 133.581 279.77 139.189C282.008 153.668 284.064 168.145 285.973 182.66C287.954 197.578 289.79 212.533 291.442 227.525C293.019 241.856 294.561 256.15 295.919 270.519C297.057 282.394 298.121 294.234 299.185 306.109C299.222 306.475 299.259 306.805 299.259 307.171C295.478 307.428 291.662 307.686 287.881 307.906C286.817 307.978 285.789 308.052 284.725 308.125C284.321 308.161 283.367 308.419 283 308.235C282.742 308.125 282.853 307.649 282.816 307.319C282.707 305.816 282.633 304.35 282.523 302.847C281.971 294.491 281.385 286.133 280.761 277.776C280.064 268.429 279.33 259.047 278.522 249.7C277.679 239.509 276.76 229.32 275.77 219.131C274.778 208.831 273.75 198.531 272.613 188.231C271.511 178.151 270.338 168.036 269.09 157.993C267.915 148.463 266.667 138.97 265.31 129.44C264.906 126.654 264.795 125.628 264.392 122.842C268.099 123.722 274.815 124.198 277.347 124.125Z" fill="#6DEEC0"/>
<path d="M369.947 90.4414C371.085 99.202 372.26 107.925 373.471 116.648C375.086 128.231 376.773 139.851 378.573 151.396C380.481 163.784 382.537 176.174 384.776 188.526C386.977 200.548 389.253 212.571 391.713 224.556C393.841 234.965 396.153 245.302 398.576 255.639C398.648 255.931 398.722 256.224 398.759 256.481C395.822 247.501 392.997 238.521 390.354 229.468C386.977 217.885 383.894 206.193 381.032 194.464C378.022 182.258 375.196 170.053 372.481 157.774C369.838 145.898 367.341 133.986 364.956 122.073C363.01 112.397 361.212 102.684 359.414 92.9704C359.378 92.6773 359.304 92.3841 359.267 92.1275C362.864 91.5777 366.424 91.0278 369.947 90.4414Z" fill="#6DEEC0"/>
<path d="M292.469 148.135C292.726 149.564 292.947 150.993 293.203 152.423C293.864 156.308 294.487 160.193 295.149 164.041C296.103 169.76 297.057 175.515 298.012 181.232C299.185 188.234 300.36 195.271 301.535 202.271C302.819 209.895 304.067 217.555 305.351 225.179C306.636 232.951 307.957 240.684 309.242 248.455C310.453 255.676 311.664 262.859 312.839 270.081C313.867 276.165 314.857 282.249 315.885 288.371C316.619 292.769 317.353 297.167 318.087 301.566C318.308 302.921 318.528 304.278 318.784 305.634C318.895 306.293 319.151 307.1 319.151 307.759C319.151 307.833 319.188 307.944 319.188 308.016C316.473 308.383 313.719 308.749 311.004 309.116C310.82 307.687 310.674 306.221 310.49 304.79C310.049 300.868 309.608 296.983 309.132 293.061C308.472 287.307 307.811 281.516 307.151 275.761C306.343 268.687 305.535 261.65 304.728 254.576C303.846 246.879 302.966 239.218 302.085 231.52C301.204 223.713 300.286 215.906 299.406 208.099C298.562 200.842 297.717 193.585 296.909 186.327C296.212 180.207 295.515 174.049 294.782 167.928C294.268 163.492 293.753 159.094 293.24 154.659C292.982 152.57 292.763 150.48 292.506 148.39C292.506 148.318 292.506 148.244 292.469 148.135Z" fill="#6DEEC0"/>
<path d="M381.729 314.395C382.244 317.804 368.075 322.825 350.018 325.611C331.998 328.396 316.912 327.919 316.399 324.511C315.885 321.102 330.052 316.081 348.109 313.295C366.168 310.51 381.215 310.985 381.729 314.395Z" fill="black"/>
<path d="M389.363 108.623C388.152 100.926 389.07 91.1392 397.584 88.7934C405.659 86.5575 382.537 87.3272 382.537 87.3272L384.114 101.952L389.363 108.623Z" fill="#6DEEC0"/>
<path d="M284.028 136.88L262.374 135.635L262.741 147.511L285.9 148.829L284.028 136.88Z" fill="black"/>
<path d="M336.144 120.313C336.402 121.962 335.264 123.465 333.648 123.722C331.997 123.978 330.492 122.842 330.236 121.229C329.978 119.58 331.116 118.077 332.731 117.82C334.346 117.564 335.887 118.663 336.144 120.313Z" fill="#6DEEC0"/>
<path d="M347.339 165.839C347.596 167.488 346.458 168.991 344.844 169.247C343.191 169.504 341.687 168.367 341.43 166.755C341.173 165.141 342.31 163.603 343.925 163.346C345.578 163.089 347.119 164.188 347.339 165.839Z" fill="#6DEEC0"/>
<path d="M333.172 149.012C333.429 150.663 332.291 152.164 330.675 152.421C329.024 152.679 327.519 151.542 327.263 149.93C327.006 148.279 328.143 146.776 329.758 146.521C331.374 146.264 332.914 147.4 333.172 149.012Z" fill="#6DEEC0"/>
<path d="M347.963 132.813C348.22 134.462 347.083 135.965 345.467 136.221C343.815 136.478 342.311 135.342 342.054 133.729C341.797 132.08 342.935 130.577 344.549 130.32C346.165 130.064 347.706 131.163 347.963 132.813Z" fill="#6DEEC0"/>
<path d="M322.124 111.224C322.895 116.062 319.555 120.644 314.673 121.377C309.829 122.147 305.242 118.811 304.508 113.936C303.737 109.098 307.076 104.553 311.958 103.784C316.84 103.05 321.39 106.349 322.124 111.224Z" fill="#6DEEC0"/>
<path d="M346.567 104.882C346.936 107.301 345.283 109.574 342.861 109.94C340.438 110.307 338.163 108.657 337.796 106.238C337.429 103.819 339.081 101.546 341.504 101.18C343.926 100.813 346.2 102.463 346.567 104.882Z" fill="#6DEEC0"/>
<path d="M299.772 113.643C299.772 113.643 299.846 113.423 299.919 113.057C299.993 112.837 300.067 112.544 300.139 112.251C300.25 111.884 300.36 111.554 300.506 111.187C300.801 110.454 301.205 109.648 301.755 108.842C302.011 108.438 302.306 108.035 302.636 107.669C302.966 107.302 303.296 106.936 303.663 106.606C304.031 106.276 304.398 105.946 304.801 105.689C305.205 105.396 305.608 105.176 306.012 104.956C306.82 104.553 307.59 104.297 308.288 104.15C308.618 104.077 308.948 104.04 309.206 104.003C309.462 103.967 309.719 103.967 309.903 103.967C310.27 103.967 310.49 103.967 310.49 103.967C310.49 103.967 310.27 104.04 309.94 104.15C309.756 104.223 309.536 104.297 309.315 104.407C309.095 104.517 308.802 104.626 308.544 104.81C307.994 105.14 307.443 105.58 306.893 106.093C306.637 106.386 306.379 106.642 306.159 106.972C305.939 107.266 305.718 107.632 305.535 107.962C305.351 108.292 305.168 108.658 305.058 109.025C304.912 109.391 304.801 109.721 304.728 110.088C304.545 110.784 304.434 111.444 304.434 111.994C304.398 112.287 304.398 112.507 304.434 112.727C304.434 112.91 304.434 113.093 304.471 113.313C304.508 113.68 304.508 113.9 304.508 113.9L299.772 113.643Z" fill="black"/>
<path d="M346.165 22.7792C345.174 17.0247 339.853 13.1027 334.384 12.0031C328.877 10.9402 322.639 13.1027 319.372 17.5011C312.179 5.91864 299.589 1.00724 286.744 8.96104C270.045 -2.29156 243.435 6.61506 240.169 26.6645C234.37 22.8892 227.8 23.0724 221.376 26.8477C212.751 31.9425 211.613 41.7658 215.284 48.2534C209.374 52.1754 203.723 58.993 205.045 67.3867C206.549 77.0998 213.705 83.844 221.634 84.2838C217.816 97.2224 226.001 111.994 241.709 113.13C255.913 114.156 266.044 101.877 265.236 88.389C269.824 91.2845 279.036 90.405 283.88 87.4726C288.139 84.8702 291.772 80.9482 293.79 76.4032C299.589 75.8167 305.646 75.0837 311.849 74.0941C352.735 67.753 380.776 57.5999 383.345 46.0907C388.006 25.4915 365.286 9.9505 346.165 22.7792Z" fill="#6DEEC0"/>
<path d="M247.288 116.794C245.379 117.088 243.435 117.161 241.452 117.014C233.195 116.428 226.111 112.506 221.597 105.945C217.853 100.557 216.274 93.886 217.082 87.3983C209.007 85.0525 202.732 77.6119 201.264 67.972C200.089 60.3481 203.538 52.6876 210.549 46.9697C207.832 39.0526 210.145 29.0095 219.43 23.5481C225.45 19.9926 231.836 19.1862 237.636 21.1655C241.452 10.5727 251.582 2.58229 264.244 0.602999C272.319 -0.643216 280.247 0.712919 286.853 4.45157C289.753 2.94878 292.689 1.95914 295.662 1.48265C304.727 0.0898194 313.535 3.8285 319.922 11.599C322.381 9.803 325.317 8.55671 328.51 8.08022C330.749 7.75034 332.988 7.7871 335.117 8.19029C340.035 9.1433 345.394 12.2222 348.183 17.1338C350.862 15.8509 353.651 14.9711 356.514 14.5313C365.544 13.1384 374.608 16.2173 380.737 22.7782C386.757 29.2292 389.07 38.0262 387.05 46.8963C383.38 63.5003 344.44 72.8836 312.398 77.8318C306.965 78.6748 301.57 79.3713 296.249 79.921C293.864 84.2461 290.23 87.9848 285.826 90.6605C283.55 92.0533 280.503 93.0796 277.238 93.5928C275.549 93.8493 272.282 94.1792 268.833 93.6294C267.4 105.505 258.812 114.998 247.288 116.794ZM229.303 27.9465C227.359 28.2397 225.34 29.0095 223.321 30.1824C216.825 34.0309 215.835 41.4349 218.624 46.383L220.385 49.4987L217.412 51.478C215.064 53.0174 207.576 58.7353 208.824 66.8358C209.999 74.3864 215.468 80.1409 221.853 80.5074L226.697 80.8007L225.34 85.419C223.725 90.8805 224.679 96.9282 227.909 101.583C231.103 106.165 236.094 108.914 242.002 109.354C243.398 109.464 244.792 109.39 246.113 109.207C255.326 107.778 262.042 98.7609 261.418 88.6813L260.941 81.1672L267.291 85.1991C269.052 86.3354 272.539 86.702 276.1 86.1155C278.339 85.749 280.466 85.0892 281.862 84.2095C285.569 81.9736 288.615 78.5649 290.267 74.863L291.184 72.8103L293.423 72.5905C299.259 72.0039 305.278 71.2708 311.26 70.318C359.231 62.8773 378.059 52.1744 379.6 45.2836C381.069 38.9059 379.453 32.6381 375.196 28.0931C370.792 23.3647 364.259 21.1657 357.762 22.192C354.496 22.7051 351.34 23.9511 348.367 25.9671L343.448 29.266L342.421 23.438C341.686 19.1862 337.503 16.5472 333.685 15.7776C332.438 15.5209 331.079 15.5209 329.721 15.7042C326.748 16.1806 324.07 17.6834 322.528 19.7726L319.151 24.3544L316.141 19.5527C311.297 11.7822 304.287 7.9704 296.837 9.1433C294.157 9.5465 291.477 10.6094 288.799 12.2588L286.669 13.5783L284.614 12.1854C279.256 8.5567 272.429 7.16406 265.419 8.26367C256.06 9.7298 245.783 16.1806 243.948 27.3232L242.994 33.1513L238.039 29.9257C235.323 28.1298 232.387 27.4701 229.303 27.9465Z" fill="black"/>
<path d="M242.811 23.8809C243.545 25.0171 244.279 26.1167 244.83 27.3629C245.453 28.8658 245.894 30.4053 246.114 32.018C246.518 34.6571 246.444 37.5525 245.82 40.155C245.197 37.9558 244.168 35.8299 242.847 33.9605C242.113 32.8975 241.27 31.908 240.241 31.1016C239.398 30.4419 238.443 30.002 237.526 29.4889C239.287 27.6196 241.049 25.7501 242.811 23.8809Z" fill="black"/>
<path d="M218.146 82.7073C218.146 82.7073 218.294 82.5239 218.587 82.1574C218.733 81.9742 218.881 81.7543 219.1 81.5344C219.358 81.2411 219.651 80.8745 219.945 80.508C220.238 80.1048 220.605 79.8117 220.937 79.4818C221.267 79.1153 221.671 78.7852 222.073 78.4554C222.881 77.7589 223.762 77.136 224.679 76.5495C225.596 75.9631 226.514 75.4498 227.396 75.01C228.276 74.5701 229.121 74.2037 229.818 73.947C231.249 73.3973 232.24 73.1406 232.24 73.1406C232.24 73.1406 231.469 73.8006 230.515 74.9368C230.039 75.4866 229.488 76.1829 228.938 76.8793C228.387 77.6125 227.872 78.4189 227.396 79.2251C226.918 80.0315 226.515 80.8745 226.221 81.6442C226.074 82.0474 225.928 82.4139 225.817 82.7438C225.707 83.1103 225.561 83.4403 225.561 83.6968C225.303 85.0163 225.12 85.8595 225.12 85.8595L218.146 82.7073Z" fill="black"/>
<path d="M262.667 54.2271C260.905 52.9076 259.364 51.1482 258.74 48.9856C258.08 46.8597 258.41 44.5507 259.437 42.608C261.492 38.796 265.933 36.6701 270.191 36.8534C272.54 36.9267 274.962 37.6598 276.65 39.3825C274.999 40.0789 273.385 40.7753 271.732 41.435C271.843 35.3873 276.687 30.769 282.376 29.5226C287.808 28.3131 294.378 29.9624 297.497 34.8739C299.259 37.6596 299.443 41.1785 298.158 44.1841C297.645 41.3617 296.653 38.6128 294.231 36.8534C291.992 35.2407 289.092 34.764 286.377 35.0938C283.587 35.4238 280.761 36.6701 279.073 38.9794C278.081 40.3355 277.751 41.9847 277.347 43.5975C277.017 44.917 276.687 46.2733 276.32 47.5928C274.999 46.2733 273.752 44.6238 272.1 43.7075C271.109 43.1578 270.227 42.5712 269.126 42.3147C268.025 42.0582 266.852 42.0582 265.749 42.3147C263.584 42.8278 261.566 44.294 260.795 46.4566C259.804 49.169 261.088 52.0279 262.667 54.2271C261.97 53.2741 261.749 53.5306 262.667 54.2271Z" fill="black"/>
<path d="M289.9 11.1586C286.634 13.9443 283.367 16.7299 280.101 19.5156C279.623 19.9187 279.146 20.322 278.668 20.7251C280.101 16.6566 281.532 12.588 282.963 8.51947C283.183 7.93303 283.367 7.34667 283.587 6.79688C285.715 8.22634 287.807 9.6925 289.9 11.1586Z" fill="black"/>
<path d="M351.193 54.0814C356.881 58.4065 356.846 66.9098 351.853 71.7848C346.385 77.0995 337.136 76.3664 332.511 70.392C330.126 67.3131 329.281 63.2079 330.566 59.4693C335.191 45.7975 345.064 49.4263 351.193 54.0814Z" fill="#6DEEC0"/>
<path d="M351.192 54.0801C355.339 55.3629 357.873 59.3947 358.24 63.5732C358.679 68.3014 356.44 73.0297 352.697 75.9253C346.201 80.9469 336.218 80.0307 331.153 73.3231C328.18 69.4012 327.299 63.5366 330.529 59.468C330.675 62.2171 331.374 64.7827 333.062 66.9819C334.934 69.401 337.723 71.1605 340.768 71.5636C346.458 72.2967 351.89 68.5213 353.028 62.8767C353.651 59.6512 352.697 56.8657 351.192 54.0801Z" fill="black"/>
<path d="M230.772 85.9695C232.02 88.8285 233.525 91.3945 235.947 93.4837C238.039 95.2797 241.085 96.9656 243.948 96.3425C243.911 96.3425 243.839 96.3793 243.802 96.3793C246.333 95.8294 248.609 94.8031 250.481 92.9337C252.866 90.5146 254.004 87.4359 255.179 84.3203C258.665 91.1012 254.775 99.458 247.949 102.207C245.894 103.05 243.691 103.417 241.489 103.124C237.745 102.684 234.405 100.338 232.313 97.2956C230.111 94.0333 229.194 89.6716 230.772 85.9695Z" fill="black"/>
<path d="M224.093 82.5236C219.835 79.9946 216.055 76.9158 214.33 72.1141C213.669 70.2082 213.449 68.1188 213.669 66.1029C213.963 63.7205 214.806 61.6312 215.835 59.4688C215.321 63.0975 215.284 66.7261 217.34 69.9516C219.505 73.287 223.248 74.57 226.918 75.4129C226.001 77.7588 225.048 80.1411 224.093 82.5236Z" fill="black"/>
<path d="M263.914 76.6583C266.373 76.8783 268.723 77.0248 271.145 76.585C273.751 76.1084 276.32 75.2289 278.559 73.7261C280.651 72.2967 282.559 70.6105 284.101 68.5946C285.531 66.6886 286.706 64.6727 288.065 62.6934C288.469 67.2018 287.073 71.7468 283.991 75.1189C280.614 78.821 275.292 80.837 270.338 79.9573C267.841 79.4808 265.676 78.4177 263.914 76.6583Z" fill="black"/>
<path d="M370.902 54.2276C371.819 52.1384 372.627 50.0491 373.103 47.8133C373.544 45.6141 373.691 43.4149 373.58 41.2157C373.47 38.8332 372.883 36.3773 371.892 34.178C370.865 31.9788 369.323 30.2562 367.488 28.7168C369.69 29.7797 371.562 31.0259 373.213 32.8587C375.049 34.9113 376.443 37.5502 377.288 40.1526C378.242 43.0482 378.793 46.0173 378.865 49.0596C378.939 51.5153 378.645 53.9344 378.278 56.3903C375.82 55.6938 373.361 54.9607 370.902 54.2276Z" fill="black"/>
<path d="M94.8036 99.3477C92.7116 105.615 87.4266 107.961 74.1404 105.616C71.2775 105.102 68.3779 104.663 65.4416 104.479C52.5591 103.71 39.7134 108.694 31.125 118.407C28.8128 121.01 26.684 123.979 25.1425 127.131C24.225 129.037 23.4175 130.98 22.6467 132.959C19.9308 139.96 17.5451 147.108 15.4897 154.328C11.1222 169.466 7.63548 184.897 4.95621 200.402C2.82746 212.827 1.02905 225.325 0.148194 237.898C0.111492 238.191 0.11142 238.448 0.0747178 238.741C0.0747178 238.887 0.0382036 239.035 0.0382036 239.181C0.0382036 239.253 0.00146529 239.547 0.00146529 239.401C0.00146529 241.856 -0.0352102 244.312 0.25841 246.768C0.698838 250.506 1.6164 254.208 3.01109 257.727C4.33237 261.027 6.0207 264.179 8.07603 267.111C9.83776 269.639 11.9665 271.802 14.0218 274.075C23.7846 284.814 32.5564 294.674 41.6586 305.12C44.7416 308.675 44.9251 317.765 42.8331 327.991C46.3565 324.363 64.5242 318.461 68.0476 314.833C73.6265 309.116 79.2052 303.397 84.7839 297.679C86.0685 296.36 87.3531 295.04 88.6376 293.721C84.9307 291.485 81.3706 288.993 77.8838 286.463C73.4061 283.237 64.9646 264.691 60.6337 261.245C59.1656 266.267 52.4124 266.414 48.7421 263.298C44.8884 260.036 41.1816 256.627 37.438 253.255C35.1624 251.166 32.7033 249.224 31.382 246.327C30.5012 244.386 30.134 242.296 30.2074 240.134C30.2074 240.28 30.2074 240.427 30.2074 240.537C30.2808 235.442 30.7582 230.347 31.2352 225.289C31.8959 218.105 32.9235 210.92 34.1713 203.809C36.7039 189.478 39.8235 175.33 44.1543 161.402C45.3288 157.59 46.5767 153.741 48.0449 150.003C49.1826 147.071 50.5406 144.138 51.6783 141.243C51.6416 141.352 51.6049 141.426 51.5682 141.535C52.9997 139.264 54.6146 137.357 57.2204 136.404C58.615 135.892 60.1933 135.598 61.6615 135.781C62.5791 135.892 85.3345 137.284 85.3345 148.39C85.9952 144.578 92.7117 134.975 93.3724 131.163C94.4368 125.115 95.501 119.031 96.5654 112.983C96.8958 111.736 94.5833 100.777 94.8036 99.3477Z" fill="black"/>
<path d="M52.3758 305.708C59.7529 282.469 77.1868 219.535 101.887 78.6758L249.541 104.516C229.391 219.388 222.748 306.367 220.914 336.093C220.436 343.937 219.518 351.707 218.161 359.441L217.463 363.399C216.215 370.547 210.783 373.992 203.774 376.852C191.477 381.873 160.612 383.156 125.671 377.035C86.3623 370.144 58.5419 359.735 49.5131 347.089C49.5131 347.089 44.3747 340.528 45.6226 333.343V333.308C47.2376 323.924 49.513 314.724 52.3758 305.708Z" fill="#6DEEC0"/>
<path d="M124.973 380.81C157.638 386.527 190.634 386.344 205.204 380.369C212.214 377.51 219.592 373.332 221.243 364.022L221.94 360.063C223.299 352.256 224.253 344.229 224.73 336.276C226.675 304.643 233.355 218.802 253.321 105.139C253.688 103.05 252.294 101.07 250.202 100.704L102.548 74.8632C100.456 74.4966 98.4737 75.8894 98.1067 77.9787C73.8463 216.309 56.743 279.279 48.742 304.497C45.8057 313.77 43.4568 323.19 41.8418 332.574C40.3738 341.003 45.7323 348.408 46.4296 349.324C58.3945 366.075 95.7211 375.677 124.973 380.81ZM245.1 107.595C225.611 219.79 219.004 304.424 217.096 335.836C216.619 343.533 215.702 351.231 214.38 358.781L213.682 362.74C212.875 367.395 209.792 370.253 202.304 373.295C191.001 377.913 161.271 379.379 126.294 373.258C87.4997 366.478 60.6334 356.104 52.5956 344.853C52.5589 344.816 52.5224 344.742 52.4857 344.705C52.449 344.67 48.4117 339.317 49.366 333.966C50.9442 324.876 53.2195 315.787 56.0456 306.843C64.0468 281.662 81.0401 219.205 105.007 83.0735L245.1 107.595Z" fill="black"/>
<path d="M101.887 78.6765C103.502 69.5865 137.819 67.9738 178.595 75.1213C219.372 82.2686 251.119 95.427 249.505 104.517C247.926 113.607 213.573 115.22 172.796 108.073C132.057 100.925 100.309 87.7666 101.887 78.6765Z" fill="#6DEEC0"/>
<path d="M172.173 111.848C192.176 115.33 211.297 116.906 226.051 116.209C243.228 115.403 252.146 111.811 253.321 105.177C254.496 98.5425 247.339 92.1279 231.446 85.5303C217.793 79.8857 199.259 74.8275 179.293 71.3454C159.29 67.8634 140.168 66.2872 125.414 66.9837C108.237 67.7901 99.3182 71.3821 98.1436 78.0165C96.9691 84.6507 104.126 91.0649 120.018 97.6625C133.635 103.307 152.17 108.329 172.173 111.848ZM177.935 78.8594C197.167 82.2315 215.004 87.0332 228.107 92.4212C243.081 98.579 245.834 102.977 245.761 103.82C245.541 104.627 241.467 107.852 225.317 108.549C211.15 109.172 192.762 107.632 173.531 104.297C154.299 100.925 136.461 96.1233 123.358 90.7352C108.384 84.5776 105.631 80.1789 105.741 79.3358C105.961 78.5296 110.035 75.304 126.221 74.6077C140.315 73.9846 158.703 75.5239 177.935 78.8594Z" fill="black"/>
<path d="M166.374 144.542C194.377 149.454 209.022 149.637 221.024 147.401L221.868 142.782C223.96 142.306 228.364 145.678 230.419 145.054C216.51 228.404 212.142 290.972 210.931 313.185C210.748 316.886 210.381 320.551 209.903 324.216C208.288 328.505 204.178 330.777 199.113 332.684C188.873 336.569 162.557 339.758 133.232 334.627C100.236 328.871 77.2604 317.912 69.5896 307.832C69.5896 307.832 66.47 304.057 66.103 299.476C67.0573 295.517 68.1951 291.595 69.4796 287.673C75.2052 270.189 88.2712 224.227 106.402 123.393C117.229 131.383 130.809 138.311 166.374 144.542Z" fill="black"/>
<path d="M103.098 117.493C92.0878 115.404 81.0037 113.461 69.9196 111.701C66.3962 111.115 63.0929 110.675 59.4961 110.968C53.3667 111.481 47.2741 113.461 42.0992 116.76C36.6672 120.168 32.1527 125.117 30.8682 131.494C35.4928 121.561 47.2007 116.283 57.6976 115.587C59.8631 115.44 62.0653 115.513 64.2308 115.843C65.7355 116.1 67.2403 116.576 68.7083 116.943C74.6175 118.482 80.5633 119.949 86.4725 121.415C91.4639 122.661 96.492 123.87 101.52 125.007C102.034 122.478 102.548 119.985 103.098 117.493Z" fill="#6DEEC0"/>
<path d="M66.8735 289.25L29.1436 255.42L61.2949 294.566L66.8735 289.25Z" fill="#6DEEC0"/>
<path d="M101.043 105.434C100.566 108.22 94.7669 116.687 81.7743 114.415C68.7816 112.142 103.209 121.269 103.209 121.269L104.53 104.885L101.043 105.434Z" fill="#6DEEC0"/>
<path d="M48.1923 134.498C43.6778 139.446 40.5949 145.274 37.8789 151.321C34.8325 158.103 32.4836 165.251 30.465 172.434C26.3543 186.985 23.5648 201.977 22.4271 217.042C21.8766 224.262 21.6564 231.63 22.9043 238.813C22.941 232.472 23.7116 226.168 24.6291 219.901C25.7303 212.57 27.0517 205.239 28.483 197.945C31.3825 183.284 34.7591 168.586 39.4203 154.401C41.6958 147.51 44.3018 140.692 48.1923 134.498Z" fill="#6DEEC0"/>
<path d="M66.2861 270.886C64.6344 277.594 57.9911 282.176 50.8343 275.102C43.6773 267.991 62.4688 288.664 62.4688 288.664L66.8364 282.139L68.8552 270.594L66.2861 270.886Z" fill="#6DEEC0"/>
<path d="M53.5498 284.961C56.3025 288.224 59.8626 294.967 57.477 302.922C55.2382 310.362 64.7076 288.259 64.7076 288.259L53.5498 284.961Z" fill="#6DEEC0"/>
<path d="M61.7351 314.211C64.0473 319.306 79.0952 332.024 95.7581 336.46C85.6282 338.292 72.6357 338.219 66.323 347.602C61.9186 344.597 57.9912 341.224 56.9636 338.622C55.1652 334.041 61.7351 314.211 61.7351 314.211Z" fill="black"/>
<path d="M207.957 339.795C204.067 343.789 185.129 349.727 168.905 348.041C177.788 353.21 189.57 358.67 192.285 369.631C197.461 368.311 202.306 366.479 204.141 364.352C207.406 360.651 207.957 339.795 207.957 339.795Z" fill="black"/>
<path d="M206.305 158.727C205.279 164.298 204.58 168.147 203.59 173.756C201.057 188.159 198.709 202.601 196.542 217.079C194.268 231.96 192.139 246.879 190.193 261.833C188.358 276.129 186.523 290.423 184.872 304.717C183.476 316.557 182.192 328.396 180.907 340.235C180.87 340.565 180.835 340.931 180.798 341.261C184.579 341.592 188.395 341.921 192.176 342.214C193.239 342.288 194.268 342.397 195.332 342.471C195.736 342.508 196.69 342.764 197.057 342.617C197.313 342.508 197.241 342.031 197.241 341.701C197.387 340.198 197.497 338.732 197.643 337.23C198.379 328.873 199.112 320.552 199.919 312.195C200.801 302.848 201.718 293.501 202.708 284.191C203.774 274.002 204.875 263.849 206.049 253.696C207.223 243.396 208.47 233.133 209.829 222.87C211.15 212.791 212.509 202.748 213.939 192.705C215.298 183.212 216.729 173.719 218.271 164.262C218.712 161.477 218.858 160.45 219.335 157.701C215.555 158.471 208.837 158.838 206.305 158.727Z" fill="#6DEEC0"/>
<path d="M114.366 123.248C113.045 131.972 111.687 140.695 110.329 149.383C108.494 160.964 106.585 172.51 104.567 184.055C102.401 196.408 100.126 208.76 97.6301 221.076C95.2077 233.062 92.6753 245.011 89.9959 256.959C87.6837 267.296 85.1513 277.596 82.5088 287.896C82.4354 288.188 82.362 288.446 82.2886 288.738C85.4083 279.832 88.3811 270.888 91.2072 261.908C94.8407 250.399 98.1072 238.743 101.227 227.088C104.457 214.955 107.54 202.786 110.476 190.581C113.339 178.778 116.055 166.902 118.697 155.026C120.826 145.387 122.808 135.71 124.79 126.034C124.863 125.74 124.9 125.447 124.973 125.191C121.45 124.494 117.926 123.871 114.366 123.248Z" fill="#6DEEC0"/>
<path d="M190.706 182.404C190.45 183.833 190.156 185.262 189.9 186.693C189.166 190.541 188.467 194.426 187.733 198.275C186.669 203.993 185.605 209.71 184.54 215.392C183.22 222.392 181.934 229.357 180.613 236.357C179.182 243.981 177.751 251.569 176.356 259.193C174.925 266.926 173.457 274.661 172.026 282.394C170.668 289.579 169.346 296.762 167.988 303.947C166.85 310.031 165.712 316.079 164.574 322.163C163.768 326.526 162.923 330.923 162.116 335.286C161.859 336.641 161.601 337.997 161.345 339.354C161.234 340.013 160.941 340.82 160.941 341.48C160.941 341.553 160.904 341.664 160.904 341.736C163.621 342.14 166.336 342.58 169.053 342.982C169.237 341.553 169.456 340.124 169.639 338.658C170.154 334.772 170.705 330.851 171.218 326.965C171.989 321.21 172.76 315.456 173.529 309.701C174.484 302.664 175.438 295.626 176.393 288.552C177.421 280.892 178.448 273.232 179.512 265.534C180.577 257.727 181.604 249.956 182.668 242.149C183.66 234.891 184.614 227.671 185.605 220.414C186.413 214.293 187.257 208.172 188.065 202.05C188.652 197.652 189.238 193.217 189.863 188.818C190.156 186.728 190.413 184.64 190.706 182.588C190.671 182.588 190.706 182.514 190.706 182.404Z" fill="#6DEEC0"/>
<path d="M98.2169 346.906C97.6298 350.315 111.723 355.593 129.708 358.745C147.692 361.897 162.739 361.677 163.327 358.305C163.914 354.897 149.821 349.619 131.836 346.467C113.889 343.315 98.8042 343.498 98.2169 346.906Z" fill="black"/>
<path d="M94.62 141.024C95.978 133.363 95.2439 123.54 86.8023 121.011C78.7646 118.629 101.85 119.838 101.85 119.838L99.9786 134.426L94.62 141.024Z" fill="#6DEEC0"/>
<path d="M199.37 171.336L221.06 170.529L220.437 182.369L197.278 183.248L199.37 171.336Z" fill="black"/>
<path d="M147.619 153.743C147.325 155.357 148.426 156.932 150.042 157.189C151.656 157.446 153.235 156.382 153.491 154.77C153.785 153.157 152.685 151.581 151.069 151.324C149.454 151.068 147.912 152.094 147.619 153.743Z" fill="#6DEEC0"/>
<path d="M135.507 199.01C135.213 200.623 136.314 202.199 137.929 202.456C139.544 202.748 141.122 201.649 141.379 200.037C141.672 198.423 140.571 196.848 138.957 196.591C137.343 196.335 135.801 197.397 135.507 199.01Z" fill="#6DEEC0"/>
<path d="M150.005 182.515C149.71 184.129 150.811 185.704 152.427 185.961C154.041 186.254 155.62 185.155 155.876 183.542C156.171 181.93 155.07 180.353 153.454 180.098C151.84 179.804 150.298 180.866 150.005 182.515Z" fill="#6DEEC0"/>
<path d="M135.543 165.986C135.249 167.599 136.35 169.175 137.965 169.432C139.58 169.725 141.159 168.625 141.415 167.013C141.709 165.399 140.608 163.824 138.992 163.567C137.378 163.274 135.837 164.374 135.543 165.986Z" fill="#6DEEC0"/>
<path d="M161.786 144.911C160.941 149.749 164.171 154.368 169.016 155.211C173.861 156.054 178.486 152.828 179.33 147.99C180.173 143.152 176.944 138.534 172.1 137.69C167.255 136.848 162.63 140.073 161.786 144.911Z" fill="#6DEEC0"/>
<path d="M137.489 138.13C137.048 140.549 138.7 142.858 141.122 143.261C143.544 143.702 145.857 142.052 146.261 139.633C146.664 137.213 145.049 134.904 142.627 134.501C140.205 134.098 137.892 135.711 137.489 138.13Z" fill="#6DEEC0"/>
<path d="M184.101 147.805C184.101 147.805 184.064 147.585 183.954 147.219C183.88 147 183.808 146.706 183.734 146.413C183.66 146.047 183.513 145.716 183.367 145.349C183.072 144.616 182.67 143.811 182.155 143.004C181.899 142.601 181.604 142.197 181.311 141.831C181.017 141.427 180.65 141.098 180.283 140.731C179.916 140.402 179.549 140.072 179.146 139.815C178.779 139.522 178.338 139.302 177.971 139.082C177.164 138.679 176.393 138.386 175.733 138.238C175.403 138.129 175.071 138.129 174.815 138.092C174.558 138.056 174.302 138.02 174.117 138.02C173.75 138.02 173.531 138.02 173.531 138.02C173.531 138.02 173.714 138.092 174.081 138.238C174.265 138.312 174.484 138.386 174.704 138.495C174.925 138.606 175.182 138.716 175.438 138.899C175.989 139.228 176.539 139.669 177.054 140.218C177.31 140.511 177.568 140.805 177.788 141.135C178.008 141.464 178.228 141.794 178.411 142.125C178.595 142.491 178.742 142.821 178.889 143.187C179.035 143.554 179.145 143.883 179.219 144.25C179.402 144.947 179.476 145.606 179.476 146.156C179.476 146.45 179.476 146.669 179.476 146.889C179.476 147.072 179.476 147.256 179.439 147.439C179.402 147.805 179.365 148.025 179.365 148.025L184.101 147.805Z" fill="black"/>
<path d="M139.47 56.0245C140.571 50.2699 145.967 46.4579 151.471 45.5049C156.977 44.5153 163.217 46.8246 166.374 51.2962C173.787 39.8603 186.449 35.1686 199.148 43.379C216.069 32.4563 242.494 41.8763 245.393 61.9991C251.266 58.3336 257.836 58.6636 264.185 62.5489C272.7 67.7904 273.654 77.6501 269.836 84.0645C275.672 88.0963 281.179 95.0237 279.711 103.417C278.022 113.094 270.755 119.692 262.79 120.021C266.35 133.033 257.873 147.658 242.164 148.465C227.96 149.198 218.05 136.736 219.151 123.247C214.49 126.069 205.314 124.97 200.543 121.964C196.322 119.288 192.762 115.293 190.854 110.711C185.055 110.015 179.036 109.135 172.833 108.072C132.056 100.925 104.236 90.2588 101.924 78.6763C97.5928 57.8937 120.642 42.8293 139.47 56.0245Z" fill="#6DEEC0"/>
<path d="M236.512 151.947C238.42 152.277 240.366 152.386 242.348 152.277C250.643 151.836 257.762 148.062 262.424 141.61C266.241 136.296 267.966 129.661 267.269 123.174C275.38 120.975 281.803 113.644 283.454 104.077C284.776 96.4901 281.509 88.7563 274.572 82.8918C277.435 75.048 275.307 64.9316 266.131 59.287C260.149 55.6217 253.799 54.6687 247.963 56.5747C244.366 45.9085 234.384 37.7348 221.757 35.4989C213.719 34.1061 205.755 35.3157 199.113 38.9077C196.249 37.3316 193.314 36.2687 190.376 35.7554C181.312 34.1794 172.466 37.7348 165.933 45.3954C163.51 43.5627 160.575 42.2797 157.418 41.6934C155.179 41.2902 152.941 41.2901 150.811 41.6567C145.857 42.5363 140.462 45.4686 137.562 50.3436C134.92 48.9873 132.13 48.0709 129.267 47.5945C120.275 46.0185 111.137 48.914 104.86 55.365C98.7311 61.7061 96.2353 70.4296 98.1071 79.373C101.447 96.0503 140.205 106.203 172.136 111.775C177.531 112.728 182.963 113.534 188.249 114.194C190.56 118.556 194.12 122.404 198.451 125.153C200.69 126.583 203.737 127.682 206.967 128.232C208.618 128.525 211.921 128.928 215.372 128.415C216.619 140.291 225.024 149.93 236.512 151.947ZM256.221 63.4655C258.166 63.7954 260.149 64.6016 262.167 65.8111C268.589 69.7697 269.434 77.2104 266.534 82.0852L264.736 85.1643L267.672 87.1802C269.984 88.7929 277.362 94.6208 275.967 102.721C274.646 110.235 269.067 115.88 262.681 116.136L257.836 116.32L259.12 120.975C260.625 126.473 259.561 132.52 256.221 137.102C252.954 141.61 247.889 144.287 241.981 144.579C240.585 144.653 239.191 144.579 237.87 144.323C228.694 142.71 222.161 133.584 222.969 123.504L223.592 116.026L217.17 119.912C215.371 121.011 211.921 121.305 208.324 120.681C206.085 120.278 203.994 119.545 202.599 118.666C198.965 116.356 195.955 112.874 194.378 109.172L193.497 107.12L191.258 106.863C185.422 106.167 179.44 105.287 173.457 104.261C125.634 95.9039 107.026 84.8344 105.631 77.8702C104.31 71.4559 106.035 65.2246 110.366 60.7529C114.843 56.1346 121.413 54.0455 127.909 55.1818C131.139 55.7316 134.296 57.0878 137.232 59.1404L142.076 62.5491L143.214 56.7211C144.022 52.506 148.279 49.9037 152.096 49.244C153.345 49.0241 154.702 49.0241 156.06 49.2806C159.033 49.7938 161.676 51.3697 163.18 53.4956L166.448 58.1141L169.53 53.3492C174.521 45.6518 181.605 42.0232 189.019 43.3061C191.662 43.7826 194.378 44.8821 197.02 46.5681L199.113 47.9242L201.204 46.5681C206.636 43.0494 213.463 41.8033 220.473 43.0129C229.832 44.6622 239.962 51.2966 241.54 62.5125L242.385 68.3403L247.376 65.2247C250.202 63.5388 253.138 62.9157 256.221 63.4655Z" fill="black"/>
<path d="M242.787 59.1777C242.053 60.314 241.282 61.4136 240.732 62.6231C240.072 64.0892 239.631 65.6287 239.338 67.2416C238.897 69.8805 238.897 72.7397 239.447 75.3787C240.109 73.1795 241.21 71.0536 242.531 69.2209C243.302 68.1946 244.145 67.2049 245.174 66.3985C246.017 65.7388 247.009 65.3355 247.926 64.8225C246.238 62.9531 244.512 61.047 242.787 59.1777Z" fill="black"/>
<path d="M266.315 118.445C266.315 118.445 266.168 118.261 265.874 117.895C265.727 117.712 265.581 117.492 265.397 117.272C265.14 116.979 264.882 116.612 264.552 116.245C264.259 115.842 263.929 115.549 263.562 115.183C263.231 114.816 262.827 114.486 262.424 114.12C261.654 113.423 260.736 112.763 259.854 112.177C258.974 111.591 258.019 111.041 257.176 110.601C256.294 110.161 255.487 109.758 254.754 109.501C253.321 108.915 252.368 108.658 252.368 108.658C252.368 108.658 253.101 109.355 254.055 110.491C254.533 111.041 255.047 111.737 255.597 112.47C256.111 113.203 256.625 114.01 257.102 114.853C257.543 115.696 257.947 116.502 258.24 117.309C258.386 117.712 258.533 118.078 258.644 118.445C258.753 118.811 258.864 119.141 258.9 119.398C259.12 120.717 259.268 121.597 259.268 121.597L266.315 118.445Z" fill="black"/>
<path d="M222.345 89.1226C224.142 87.8398 225.684 86.117 226.383 83.9911C227.08 81.8652 226.822 79.5561 225.795 77.6134C223.812 73.7647 219.409 71.5655 215.188 71.6388C212.839 71.6755 210.379 72.3354 208.691 74.0214C210.307 74.7545 211.921 75.4509 213.573 76.1838C213.573 70.1361 208.838 65.4077 203.186 64.0516C197.754 62.7321 191.184 64.2348 187.954 69.1098C186.156 71.8587 185.863 75.3774 187.111 78.4197C187.698 75.634 188.725 72.885 191.147 71.1624C193.423 69.5862 196.359 69.1831 199.039 69.5862C201.828 69.9895 204.654 71.2722 206.269 73.6181C207.223 75.0109 207.553 76.6604 207.92 78.2731C208.215 79.5927 208.545 80.949 208.838 82.2685C210.196 80.949 211.48 79.3727 213.133 78.4931C214.123 77.9799 215.041 77.3935 216.141 77.1368C217.244 76.8803 218.417 76.9171 219.518 77.2103C221.684 77.7601 223.666 79.2627 224.4 81.4253C225.317 84.1009 223.996 86.9601 222.345 89.1226C223.299 88.4262 223.041 88.1696 222.345 89.1226Z" fill="black"/>
<path d="M195.955 45.5403C199.148 48.3993 202.379 51.2216 205.572 54.0807C206.048 54.4838 206.489 54.8869 206.967 55.3267C205.609 51.2215 204.25 47.1164 202.892 43.0112C202.709 42.4247 202.488 41.8383 202.305 41.252C200.214 42.6814 198.084 44.1108 195.955 45.5403Z" fill="black"/>
<path d="M133.855 87.2536C128.056 91.4688 127.982 99.973 132.864 104.957C138.223 110.382 147.508 109.832 152.242 103.931C154.701 100.889 155.619 96.7836 154.408 93.0449C150.005 79.2632 140.058 82.7086 133.855 87.2536Z" fill="#6DEEC0"/>
<path d="M133.855 87.252C129.671 88.4615 127.065 92.4201 126.625 96.5985C126.111 101.327 128.24 106.092 131.91 109.061C138.333 114.229 148.316 113.496 153.491 106.898C156.538 103.013 157.565 97.1851 154.409 93.0433C154.188 95.7556 153.491 98.3212 151.729 100.52C149.821 102.903 146.995 104.589 143.911 104.919C138.223 105.542 132.864 101.657 131.837 95.9754C131.286 92.7499 132.277 90.001 133.855 87.252Z" fill="black"/>
<path d="M253.616 121.486C252.294 124.345 250.752 126.874 248.293 128.89C246.165 130.65 243.081 132.262 240.22 131.566C240.257 131.566 240.292 131.603 240.366 131.603C237.833 130.98 235.594 129.917 233.759 128.011C231.411 125.555 230.345 122.439 229.245 119.287C225.649 125.995 229.355 134.425 236.145 137.321C238.164 138.2 240.366 138.604 242.568 138.383C246.312 138.017 249.688 135.744 251.853 132.739C254.129 129.513 255.121 125.188 253.616 121.486Z" fill="black"/>
<path d="M260.405 118.153C264.699 115.734 268.554 112.692 270.389 107.927C271.085 106.057 271.38 103.932 271.159 101.952C270.902 99.5701 270.131 97.4439 269.104 95.2812C269.544 98.9467 269.508 102.575 267.379 105.727C265.177 109.026 261.359 110.199 257.689 111.005C258.57 113.351 259.487 115.771 260.405 118.153Z" fill="black"/>
<path d="M220.656 111.518C218.197 111.664 215.848 111.811 213.426 111.298C210.82 110.748 208.251 109.832 206.085 108.292C204.03 106.826 202.158 105.103 200.653 103.051C199.259 101.108 198.121 99.055 196.8 97.0762C196.322 101.585 197.608 106.13 200.653 109.575C203.957 113.314 209.241 115.476 214.234 114.67C216.692 114.23 218.858 113.24 220.656 111.518Z" fill="black"/>
<path d="M114.146 86.9976C113.265 84.8717 112.495 82.7825 112.054 80.5466C111.65 78.3474 111.577 76.1482 111.687 73.9122C111.834 71.5298 112.458 69.0742 113.522 66.9116C114.587 64.7124 116.165 63.0628 118.037 61.5234C115.798 62.5497 113.926 63.7594 112.238 65.5555C110.366 67.5713 108.898 70.1736 108.017 72.776C107.026 75.635 106.402 78.6038 106.292 81.6461C106.182 84.1019 106.402 86.521 106.732 88.9768C109.191 88.3538 111.651 87.6573 114.146 86.9976Z" fill="black"/>
</g>
<defs>
<filter id="filter0_d_152_3" x="0" y="0.152344" width="487" height="389.824" filterUnits="userSpaceOnUse" color-interpolation-filters="sRGB">
<feFlood flood-opacity="0" result="BackgroundImageFix"/>
<feColorMatrix in="SourceAlpha" type="matrix" values="0 0 0 0 0 0 0 0 0 0 0 0 0 0 0 0 0 0 127 0" result="hardAlpha"/>
<feOffset dx="5" dy="5"/>
<feComposite in2="hardAlpha" operator="out"/>
<feColorMatrix type="matrix" values="0 0 0 0 0 0 0 0 0 0 0 0 0 0 0 0 0 0 0.25 0"/>
<feBlend mode="normal" in2="BackgroundImageFix" result="effect1_dropShadow_152_3"/>
<feBlend mode="normal" in="SourceGraphic" in2="effect1_dropShadow_152_3" result="shape"/>
</filter>
</defs>
</svg>
