<svg width="600" height="600" viewBox="0 0 600 600" fill="none" xmlns="http://www.w3.org/2000/svg">
<path d="M485.461 143.19C487.883 151.038 494.415 154.095 511.046 151.495C514.655 150.947 518.265 150.445 521.874 150.263C537.91 149.624 553.764 156.149 564.273 168.422C567.106 171.753 569.664 175.494 571.491 179.418C572.587 181.836 573.547 184.255 574.461 186.719C577.658 195.525 580.445 204.467 582.867 213.501C587.939 232.436 591.914 251.736 594.837 271.129C597.213 286.641 599.132 302.244 599.908 317.941C599.908 318.305 599.954 318.625 599.954 318.99C599.954 319.173 599.954 319.356 600 319.538C600 319.63 600 320.04 600 319.812C599.954 322.869 599.954 325.926 599.497 328.982C598.858 333.636 597.624 338.2 595.796 342.534C594.061 346.64 591.867 350.519 589.263 354.077C587.025 357.18 584.328 359.825 581.725 362.609C569.298 375.75 558.15 387.841 546.545 400.571C542.616 404.905 542.16 416.22 544.536 429.041C540.24 424.433 517.762 416.632 513.467 412.068C506.661 404.815 499.853 397.56 493.045 390.305C491.492 388.616 489.893 386.973 488.34 385.286C493 382.593 497.477 379.582 501.862 376.525C507.482 372.601 518.448 349.697 523.929 345.591C525.62 351.842 534.027 352.252 538.687 348.464C543.53 344.495 548.282 340.389 553.033 336.237C555.912 333.728 559.064 331.309 560.708 327.751C561.85 325.332 562.353 322.731 562.353 320.086C562.353 320.268 562.353 320.45 562.353 320.586C562.399 314.245 561.942 307.903 561.486 301.56C560.8 292.572 559.749 283.63 558.378 274.778C555.591 256.892 552.027 239.189 547.002 221.76C545.632 216.969 544.169 212.178 542.434 207.479C541.108 203.783 539.463 200.087 538.139 196.482C538.185 196.619 538.231 196.711 538.277 196.848C536.54 194.019 534.576 191.555 531.377 190.323C529.641 189.684 527.676 189.273 525.849 189.456C524.707 189.547 496.381 190.779 496.106 204.604C495.375 199.859 487.243 187.722 486.511 182.977C485.323 175.403 484.181 167.829 482.993 160.255C482.582 158.521 485.736 144.924 485.461 143.19Z" fill="black"/>
<path d="M533.25 400.979C524.615 371.916 504.467 293.164 477.147 117.228L292.751 145.79C315.046 289.286 321.169 397.65 322.722 434.698C323.133 444.462 324.092 454.18 325.601 463.854L326.378 468.781C327.749 477.679 334.419 482.104 343.098 485.846C358.267 492.415 396.645 494.742 440.322 487.989C489.391 480.37 524.296 468.096 535.855 452.584C535.855 452.584 542.435 444.508 541.018 435.564V435.52C539.191 423.839 536.586 412.296 533.25 400.979Z" fill="#6DEEC0"/>
<path d="M441.053 492.735C400.253 499.032 359.226 498.029 341.18 490.272C332.545 486.531 323.453 481.146 321.626 469.557L320.848 464.629C319.342 454.865 318.336 444.874 317.925 434.972C316.28 395.551 310.021 288.557 287.998 146.612C287.588 144.011 289.37 141.547 291.973 141.137L476.369 112.575C478.974 112.164 481.44 113.943 481.851 116.544C508.67 289.287 528.407 368.083 537.774 399.657C541.2 411.246 543.895 423.065 545.678 434.744C547.323 445.285 540.469 454.365 539.555 455.505C524.296 476.036 477.557 487.079 441.053 492.735ZM298.232 149.806C319.752 289.879 325.875 395.415 327.518 434.516C327.931 444.098 328.844 453.724 330.305 463.124L331.082 468.052C331.996 473.847 335.743 477.497 344.971 481.466C358.906 487.489 395.867 490.044 439.544 483.291C488.02 475.764 521.691 463.535 531.972 449.755C532.018 449.711 532.062 449.665 532.108 449.573C532.154 449.528 537.317 443.004 536.265 436.295C534.484 424.934 531.926 413.573 528.59 402.35C519.225 370.822 499.624 292.662 473.08 122.704L298.232 149.806Z" fill="black"/>
<path d="M477.147 117.229C475.364 105.867 432.692 103.039 381.75 110.932C330.854 118.826 291.014 134.43 292.751 145.791C294.532 157.152 337.206 159.981 388.146 152.087C439.088 144.24 478.928 128.59 477.147 117.229Z" fill="#6DEEC0"/>
<path d="M388.877 156.834C363.932 160.712 340.082 162.172 321.716 160.94C300.334 159.526 289.324 154.826 288.044 146.522C286.766 138.218 295.812 130.416 315.777 122.614C332.91 115.907 356.073 110.067 381.019 106.234C405.965 102.356 429.813 100.895 448.18 102.127C469.561 103.542 480.573 108.241 481.851 116.546C483.131 124.85 474.085 132.652 454.12 140.454C437.032 147.161 413.869 152.955 388.877 156.834ZM382.481 115.679C358.449 119.42 336.153 124.986 319.706 131.328C300.929 138.629 297.411 144.013 297.457 145.062C297.685 146.066 302.664 150.172 322.814 151.45C340.403 152.545 363.338 151.131 387.37 147.389C411.401 143.648 433.698 138.081 450.145 131.739C468.922 124.439 472.44 119.055 472.348 118.006C472.12 117.002 467.141 112.895 446.992 111.618C429.448 110.477 406.512 111.937 382.481 115.679Z" fill="black"/>
<path d="M395.273 197.669C360.322 203.098 342.093 202.962 327.199 199.859L326.285 194.11C323.727 193.471 318.107 197.532 315.593 196.711C330.854 300.786 334.783 378.762 335.742 406.456C335.925 411.066 336.245 415.628 336.746 420.236C338.666 425.574 343.692 428.539 349.996 431.049C362.652 436.115 395.318 440.769 431.96 435.064C473.169 428.677 501.998 415.628 511.822 403.262C511.822 403.262 515.797 398.654 516.346 392.952C515.248 387.978 513.923 383.05 512.461 378.214C505.745 356.312 490.622 298.777 470.521 172.894C456.814 182.475 439.682 190.779 395.273 197.669Z" fill="black"/>
<path d="M474.725 165.548C488.477 163.221 502.32 161.077 516.164 159.115C520.596 158.476 524.707 157.974 529.185 158.476C536.768 159.252 544.306 161.898 550.703 166.096C557.373 170.476 562.856 176.727 564.317 184.711C558.835 172.21 544.398 165.366 531.331 164.225C528.636 163.997 525.895 164.042 523.198 164.408C521.325 164.681 519.452 165.229 517.579 165.685C510.177 167.464 502.776 169.107 495.329 170.795C489.07 172.21 482.811 173.578 476.506 174.902C475.913 171.799 475.318 168.651 474.725 165.548Z" fill="#6DEEC0"/>
<path d="M515.615 380.221L563.406 338.975L522.377 386.928L515.615 380.221Z" fill="#6DEEC0"/>
<path d="M477.557 150.629C478.104 154.097 485.095 164.773 501.313 162.264C517.534 159.754 474.496 170.294 474.496 170.294L473.262 149.854L477.557 150.629Z" fill="#6DEEC0"/>
<path d="M542.616 188.043C548.098 194.294 551.799 201.64 555.044 209.26C558.653 217.792 561.44 226.734 563.77 235.678C568.52 253.882 571.674 272.636 572.724 291.388C573.226 300.376 573.319 309.592 571.582 318.444C571.674 310.55 570.896 302.703 569.892 294.855C568.704 285.684 567.242 276.559 565.643 267.433C562.353 249.137 558.561 230.75 553.079 212.955C550.384 204.377 547.276 195.845 542.616 188.043Z" fill="#6DEEC0"/>
<path d="M516.756 357.317C518.676 365.712 526.808 371.599 535.854 362.929C544.9 354.261 521.052 379.538 521.052 379.538L515.797 371.279L513.559 356.86L516.756 357.317Z" fill="#6DEEC0"/>
<path d="M532.291 375.156C528.818 379.172 524.204 387.431 526.945 397.422C529.55 406.776 518.312 379.036 518.312 379.036L532.291 375.156Z" fill="#6DEEC0"/>
<path d="M521.372 411.384C518.401 417.68 499.35 433.147 478.471 438.258C491.035 440.768 507.209 440.995 514.839 452.858C520.413 449.208 525.346 445.148 526.718 441.909C529.092 436.205 521.372 411.384 521.372 411.384Z" fill="black"/>
<path d="M338.758 439.674C343.51 444.738 366.948 452.586 387.187 450.897C375.994 457.103 361.236 463.628 357.581 477.224C351.186 475.445 345.199 473.072 342.961 470.379C338.986 465.635 338.758 439.674 338.758 439.674Z" fill="black"/>
<path d="M345.246 214.323C346.388 221.304 347.165 226.094 348.261 233.075C351.048 251.098 353.607 269.12 355.983 287.188C358.449 305.758 360.735 324.374 362.791 343.036C364.754 360.876 366.674 378.67 368.365 396.556C369.781 411.338 371.106 426.076 372.43 440.859C372.476 441.315 372.522 441.725 372.522 442.182C367.816 442.502 363.065 442.822 358.359 443.096C357.034 443.186 355.754 443.278 354.43 443.368C353.927 443.414 352.739 443.734 352.282 443.506C351.962 443.368 352.1 442.776 352.054 442.365C351.917 440.495 351.825 438.67 351.689 436.799C351.002 426.396 350.273 415.992 349.495 405.59C348.628 393.954 347.714 382.275 346.708 370.64C345.658 357.955 344.515 345.271 343.282 332.588C342.048 319.766 340.768 306.945 339.353 294.123C337.981 281.576 336.52 268.984 334.967 256.482C333.505 244.619 331.95 232.802 330.261 220.939C329.758 217.471 329.62 216.193 329.119 212.726C333.733 213.821 342.094 214.414 345.246 214.323Z" fill="#6DEEC0"/>
<path d="M460.515 172.392C461.932 183.296 463.394 194.155 464.901 205.014C466.912 219.433 469.012 233.897 471.252 248.269C473.628 263.69 476.187 279.113 478.974 294.489C481.715 309.454 484.548 324.42 487.609 339.339C490.258 352.297 493.137 365.164 496.152 378.032C496.242 378.396 496.335 378.76 496.381 379.08C492.724 367.901 489.208 356.723 485.918 345.454C481.715 331.035 477.876 316.481 474.314 301.88C470.567 286.686 467.049 271.493 463.669 256.209C460.379 241.424 457.271 226.596 454.302 211.767C451.88 199.722 449.642 187.631 447.404 175.54C447.358 175.175 447.266 174.81 447.22 174.491C451.698 173.806 456.129 173.122 460.515 172.392Z" fill="#6DEEC0"/>
<path d="M364.068 244.209C364.389 245.988 364.663 247.767 364.982 249.547C365.805 254.383 366.581 259.22 367.404 264.01C368.592 271.129 369.78 278.292 370.968 285.409C372.429 294.125 373.892 302.885 375.354 311.599C376.953 321.089 378.506 330.625 380.105 340.115C381.704 349.789 383.348 359.415 384.947 369.089C386.456 378.077 387.963 387.019 389.425 396.009C390.705 403.582 391.938 411.156 393.218 418.777C394.131 424.251 395.045 429.726 395.959 435.202C396.233 436.889 396.508 438.578 396.826 440.266C396.964 441.087 397.283 442.091 397.283 442.912C397.283 443.004 397.329 443.142 397.329 443.232C393.949 443.688 390.521 444.144 387.141 444.6C386.913 442.821 386.73 440.997 386.502 439.216C385.953 434.334 385.404 429.498 384.811 424.616C383.989 417.453 383.166 410.243 382.344 403.08C381.339 394.274 380.333 385.515 379.329 376.709C378.231 367.127 377.135 357.59 376.039 348.008C374.942 338.29 373.8 328.572 372.704 318.854C371.654 309.82 370.602 300.786 369.596 291.752C368.729 284.132 367.861 276.467 366.947 268.848C366.308 263.325 365.667 257.851 365.028 252.331C364.708 249.729 364.435 247.128 364.114 244.527C364.114 244.437 364.114 244.345 364.068 244.209Z" fill="#6DEEC0"/>
<path d="M475.182 451.172C475.822 455.416 458.186 461.667 435.708 465.135C413.276 468.602 394.497 468.008 393.858 463.766C393.218 459.522 410.854 453.271 433.332 449.804C455.811 446.336 474.542 446.929 475.182 451.172Z" fill="black"/>
<path d="M484.684 195.023C483.177 185.442 484.319 173.259 494.918 170.339C504.969 167.556 476.187 168.514 476.187 168.514L478.15 186.719L484.684 195.023Z" fill="#6DEEC0"/>
<path d="M353.562 230.2L326.606 228.649L327.063 243.433L355.892 245.074L353.562 230.2Z" fill="black"/>
<path d="M418.437 209.577C418.757 211.631 417.341 213.502 415.329 213.821C413.273 214.14 411.4 212.726 411.081 210.718C410.761 208.665 412.177 206.794 414.187 206.475C416.198 206.156 418.116 207.524 418.437 209.577Z" fill="#6DEEC0"/>
<path d="M432.371 266.248C432.692 268.301 431.275 270.172 429.265 270.49C427.208 270.81 425.336 269.396 425.016 267.389C424.696 265.38 426.112 263.465 428.122 263.145C430.179 262.825 432.098 264.194 432.371 266.248Z" fill="#6DEEC0"/>
<path d="M414.736 245.302C415.057 247.357 413.64 249.226 411.629 249.546C409.573 249.866 407.7 248.451 407.381 246.444C407.061 244.39 408.477 242.519 410.487 242.2C412.498 241.88 414.416 243.295 414.736 245.302Z" fill="#6DEEC0"/>
<path d="M433.148 225.136C433.469 227.189 432.052 229.06 430.041 229.379C427.985 229.699 426.112 228.284 425.793 226.277C425.473 224.223 426.889 222.353 428.899 222.034C430.91 221.714 432.828 223.083 433.148 225.136Z" fill="#6DEEC0"/>
<path d="M400.984 198.262C401.943 204.285 397.786 209.988 391.709 210.901C385.679 211.859 379.968 207.707 379.055 201.638C378.095 195.616 382.252 189.958 388.329 189C394.406 188.087 400.07 192.194 400.984 198.262Z" fill="#6DEEC0"/>
<path d="M431.412 190.368C431.87 193.379 429.813 196.208 426.797 196.664C423.782 197.121 420.949 195.068 420.492 192.056C420.035 189.045 422.093 186.216 425.108 185.76C428.123 185.303 430.955 187.357 431.412 190.368Z" fill="#6DEEC0"/>
<path d="M373.161 201.275C373.161 201.275 373.253 201.001 373.344 200.545C373.436 200.271 373.528 199.906 373.618 199.541C373.756 199.085 373.892 198.674 374.075 198.218C374.441 197.305 374.944 196.302 375.629 195.298C375.948 194.796 376.315 194.294 376.725 193.838C377.136 193.382 377.547 192.925 378.004 192.514C378.462 192.104 378.919 191.693 379.42 191.374C379.923 191.009 380.426 190.735 380.929 190.461C381.934 189.96 382.892 189.64 383.762 189.458C384.172 189.366 384.583 189.321 384.904 189.275C385.222 189.229 385.543 189.229 385.771 189.229C386.228 189.229 386.503 189.229 386.503 189.229C386.503 189.229 386.228 189.321 385.817 189.458C385.589 189.549 385.315 189.64 385.04 189.777C384.766 189.914 384.401 190.051 384.08 190.279C383.395 190.689 382.71 191.237 382.025 191.876C381.706 192.241 381.386 192.56 381.111 192.971C380.837 193.336 380.562 193.792 380.334 194.203C380.105 194.613 379.877 195.07 379.741 195.526C379.558 195.982 379.42 196.393 379.33 196.849C379.101 197.716 378.963 198.537 378.963 199.222C378.919 199.587 378.919 199.861 378.963 200.134C378.963 200.362 378.963 200.59 379.009 200.864C379.055 201.32 379.055 201.594 379.055 201.594L373.161 201.275Z" fill="black"/>
<path d="M430.911 88.1654C429.677 81.0021 423.053 76.1199 416.245 74.7511C409.391 73.428 401.625 76.1199 397.558 81.5951C388.604 67.1771 372.933 61.0633 356.942 70.9643C336.155 56.9569 303.031 68.044 298.966 93.0019C291.747 88.3022 283.569 88.5303 275.573 93.2298C264.836 99.572 263.419 111.8 267.989 119.876C260.632 124.758 253.598 133.245 255.242 143.693C257.116 155.784 266.024 164.18 275.893 164.727C271.141 180.833 281.329 199.221 300.883 200.635C318.565 201.913 331.175 186.628 330.169 169.837C335.881 173.442 347.348 172.347 353.378 168.697C358.679 165.457 363.202 160.575 365.714 154.917C372.933 154.187 380.472 153.275 388.194 152.043C439.09 144.149 473.995 131.511 477.193 117.184C482.995 91.5417 454.713 72.1961 430.911 88.1654Z" fill="#6DEEC0"/>
<path d="M307.827 205.198C305.451 205.563 303.03 205.654 300.562 205.471C290.284 204.741 281.466 199.859 275.846 191.692C271.186 184.985 269.221 176.681 270.226 168.605C260.175 165.685 252.363 156.423 250.535 144.423C249.073 134.933 253.367 125.397 262.094 118.279C258.712 108.424 261.591 95.9217 273.15 89.1234C280.643 84.6975 288.593 83.6936 295.811 86.1575C300.562 72.9714 313.172 63.0248 328.934 60.561C338.986 59.0097 348.855 60.6978 357.078 65.3517C360.688 63.481 364.343 62.2491 368.043 61.656C379.327 59.9222 390.293 64.5761 398.243 74.249C401.304 72.0133 404.959 70.4619 408.934 69.8687C411.721 69.4581 414.508 69.5038 417.158 70.0057C423.279 71.192 429.951 75.0247 433.423 81.1387C436.757 79.5418 440.229 78.4466 443.793 77.8991C455.033 76.1652 466.317 79.9978 473.947 88.165C481.44 96.1953 484.319 107.146 481.805 118.187C477.236 138.856 428.763 150.537 388.876 156.696C382.114 157.746 375.398 158.613 368.775 159.297C365.805 164.681 361.281 169.335 355.8 172.666C352.967 174.399 349.174 175.677 345.109 176.316C343.007 176.635 338.94 177.046 334.646 176.362C332.863 191.145 322.172 202.962 307.827 205.198ZM285.439 94.5986C283.019 94.9635 280.506 95.9217 277.992 97.3818C269.906 102.172 268.673 111.389 272.146 117.549L274.338 121.427L270.637 123.891C267.714 125.807 258.393 132.925 259.946 143.008C261.409 152.408 268.217 159.571 276.165 160.027L282.196 160.392L280.506 166.141C278.495 172.94 279.683 180.468 283.704 186.262C287.679 191.966 293.892 195.388 301.247 195.935C302.984 196.072 304.719 195.981 306.364 195.753C317.833 193.973 326.193 182.749 325.416 170.202L324.823 160.848L332.727 165.867C334.919 167.282 339.26 167.738 343.692 167.008C346.479 166.552 349.128 165.731 350.865 164.635C355.479 161.852 359.272 157.609 361.327 153.001L362.469 150.446L365.256 150.172C372.521 149.442 380.014 148.529 387.46 147.343C447.175 138.081 470.613 124.758 472.53 116.18C474.359 108.241 472.348 100.439 467.048 94.781C461.567 88.8951 453.434 86.1577 445.346 87.4352C441.281 88.0739 437.352 89.625 433.651 92.1345L427.529 96.2411L426.25 88.9863C425.335 83.6936 420.127 80.4086 415.375 79.4506C413.822 79.131 412.131 79.131 410.44 79.3591C406.74 79.9522 403.406 81.8228 401.486 84.4236L397.283 90.127L393.536 84.1498C387.506 74.477 378.78 69.732 369.506 71.1921C366.17 71.694 362.834 73.017 359.5 75.0702L356.85 76.7128L354.291 74.9789C347.621 70.4619 339.122 68.7283 330.397 70.0971C318.746 71.9221 305.954 79.9522 303.669 93.8227L302.481 101.078L296.314 97.0623C292.933 94.8267 289.278 94.0055 285.439 94.5986Z" fill="black"/>
<path d="M302.255 89.5352C303.169 90.9496 304.083 92.3184 304.768 93.8696C305.543 95.7404 306.092 97.6569 306.367 99.6643C306.87 102.95 306.777 106.554 306 109.793C305.225 107.056 303.945 104.409 302.3 102.082C301.386 100.759 300.336 99.5275 299.056 98.5237C298.006 97.7025 296.818 97.1549 295.676 96.5162C297.868 94.1892 300.062 91.862 302.255 89.5352Z" fill="black"/>
<path d="M271.551 162.764C271.551 162.764 271.735 162.536 272.1 162.08C272.282 161.852 272.466 161.578 272.739 161.304C273.059 160.939 273.424 160.483 273.791 160.026C274.155 159.525 274.612 159.16 275.025 158.749C275.435 158.293 275.938 157.882 276.439 157.471C277.445 156.604 278.541 155.829 279.683 155.099C280.825 154.369 281.967 153.73 283.065 153.182C284.161 152.635 285.213 152.179 286.08 151.859C287.862 151.175 289.096 150.855 289.096 150.855C289.096 150.855 288.136 151.677 286.948 153.091C286.355 153.776 285.67 154.643 284.984 155.509C284.299 156.422 283.658 157.426 283.065 158.43C282.47 159.433 281.969 160.483 281.602 161.441C281.42 161.943 281.238 162.399 281.1 162.81C280.963 163.266 280.781 163.677 280.781 163.996C280.46 165.639 280.232 166.688 280.232 166.688L271.551 162.764Z" fill="black"/>
<path d="M326.971 127.311C324.778 125.669 322.86 123.479 322.083 120.787C321.261 118.14 321.672 115.266 322.95 112.848C325.509 108.103 331.037 105.456 336.338 105.684C339.261 105.776 342.276 106.688 344.378 108.833C342.322 109.7 340.313 110.567 338.255 111.388C338.393 103.859 344.424 98.1105 351.505 96.5591C358.267 95.0534 366.445 97.1065 370.328 103.22C372.522 106.688 372.75 111.068 371.151 114.81C370.512 111.296 369.278 107.875 366.263 105.684C363.476 103.677 359.866 103.084 356.485 103.494C353.013 103.905 349.495 105.456 347.393 108.331C346.159 110.019 345.749 112.072 345.246 114.08C344.835 115.722 344.424 117.411 343.967 119.053C342.322 117.411 340.77 115.357 338.714 114.217C337.48 113.532 336.382 112.802 335.012 112.483C333.641 112.163 332.18 112.163 330.808 112.483C328.113 113.121 325.601 114.947 324.641 117.639C323.407 121.015 325.006 124.574 326.971 127.311C326.104 126.125 325.829 126.444 326.971 127.311Z" fill="black"/>
<path d="M360.871 73.7011C356.806 77.1687 352.739 80.6362 348.674 84.1039C348.079 84.6057 347.486 85.1077 346.891 85.6095C348.674 80.5449 350.455 75.4804 352.236 70.4158C352.511 69.6858 352.739 68.9559 353.013 68.2715C355.662 70.0509 358.267 71.876 360.871 73.7011Z" fill="black"/>
<path d="M437.17 127.131C444.251 132.515 444.206 143.1 437.992 149.168C431.185 155.784 419.671 154.871 413.915 147.434C410.946 143.602 409.894 138.492 411.493 133.838C417.251 116.819 429.541 121.336 437.17 127.131Z" fill="#6DEEC0"/>
<path d="M437.168 127.13C442.331 128.727 445.485 133.746 445.941 138.947C446.489 144.833 443.702 150.719 439.041 154.323C430.955 160.574 418.529 159.434 412.224 151.084C408.523 146.202 407.426 138.901 411.447 133.837C411.629 137.259 412.498 140.453 414.6 143.19C416.93 146.202 420.402 148.392 424.193 148.894C431.276 149.806 438.037 145.107 439.454 138.08C440.229 134.065 439.041 130.597 437.168 127.13Z" fill="black"/>
<path d="M287.269 166.824C288.822 170.383 290.695 173.577 293.71 176.178C296.315 178.414 300.106 180.513 303.67 179.737C303.624 179.737 303.534 179.783 303.487 179.783C306.639 179.098 309.472 177.821 311.802 175.494C314.772 172.482 316.188 168.65 317.651 164.771C321.99 173.212 317.148 183.615 308.651 187.037C306.092 188.087 303.349 188.543 300.608 188.178C295.948 187.63 291.791 184.71 289.186 180.923C286.445 176.862 285.303 171.433 287.269 166.824Z" fill="black"/>
<path d="M278.954 162.536C273.653 159.388 268.948 155.555 266.8 149.578C265.977 147.206 265.704 144.605 265.977 142.095C266.344 139.13 267.394 136.529 268.674 133.837C268.035 138.354 267.989 142.871 270.547 146.886C273.242 151.038 277.902 152.635 282.47 153.684C281.328 156.605 280.142 159.57 278.954 162.536Z" fill="black"/>
<path d="M328.523 155.235C331.585 155.509 334.51 155.692 337.525 155.144C340.769 154.551 343.967 153.456 346.754 151.585C349.358 149.806 351.733 147.707 353.652 145.198C355.433 142.825 356.896 140.315 358.587 137.852C359.089 143.464 357.352 149.121 353.515 153.319C349.312 157.927 342.687 160.437 336.519 159.342C333.412 158.749 330.717 157.425 328.523 155.235Z" fill="black"/>
<path d="M461.704 127.314C462.846 124.713 463.851 122.112 464.444 119.329C464.993 116.592 465.176 113.854 465.038 111.116C464.901 108.151 464.17 105.094 462.936 102.356C461.658 99.6182 459.738 97.4739 457.454 95.5576C460.195 96.8808 462.525 98.4321 464.581 100.713C466.867 103.269 468.602 106.554 469.654 109.793C470.842 113.398 471.527 117.094 471.617 120.881C471.709 123.938 471.343 126.949 470.886 130.006C467.826 129.139 464.765 128.226 461.704 127.314Z" fill="black"/>
<path d="M118.013 183.479C115.409 191.281 108.83 194.201 92.2909 191.281C88.7272 190.642 85.1177 190.095 81.4626 189.866C65.4263 188.908 49.4357 195.113 38.7448 207.204C35.8665 210.444 33.2166 214.14 31.2977 218.064C30.1556 220.436 29.1505 222.854 28.191 225.318C24.8102 234.033 21.8403 242.931 19.2818 251.919C13.8451 270.763 9.50475 289.971 6.16955 309.272C3.51966 324.739 1.28098 340.297 0.184474 355.948C0.138786 356.312 0.138697 356.632 0.0930097 356.997C0.0930097 357.179 0.0475563 357.363 0.0475563 357.545C0.0475563 357.635 0.00182402 358.001 0.00182402 357.819C0.00182402 360.874 -0.0438302 363.932 0.321672 366.989C0.869923 371.643 2.01211 376.251 3.74824 380.631C5.39299 384.739 7.49465 388.662 10.0532 392.312C12.2462 395.459 14.896 398.152 17.4545 400.982C29.6074 414.35 40.5266 426.623 51.8572 439.627C55.695 444.052 55.9234 455.367 53.3192 468.097C57.7052 463.581 80.3206 456.234 84.7065 451.718C91.6512 444.601 98.5957 437.482 105.54 430.365C107.139 428.722 108.738 427.079 110.337 425.436C105.723 422.653 101.291 419.552 96.9508 416.402C91.3769 412.387 80.8688 389.301 75.4776 385.011C73.6502 391.262 65.2437 391.445 60.6748 387.566C55.8777 383.506 51.2634 379.262 46.6033 375.065C43.7707 372.463 40.7095 370.046 39.0648 366.441C37.9682 364.024 37.5112 361.423 37.6026 358.731C37.6026 358.913 37.6026 359.096 37.6026 359.233C37.694 352.891 38.2882 346.548 38.882 340.251C39.7045 331.309 40.9836 322.366 42.5369 313.514C45.6895 295.674 49.5728 278.062 54.9639 260.725C56.4259 255.979 57.9793 251.189 59.8069 246.535C61.2232 242.885 62.9136 239.234 64.3299 235.63C64.2842 235.766 64.2385 235.858 64.1928 235.994C65.9748 233.167 67.9849 230.794 71.2287 229.607C72.9648 228.969 74.9294 228.603 76.757 228.831C77.8993 228.969 106.226 230.702 106.226 244.528C107.048 239.782 115.409 227.828 116.231 223.083C117.556 215.554 118.881 207.98 120.206 200.452C120.617 198.9 117.739 185.258 118.013 183.479Z" fill="black"/>
<path d="M65.1985 440.359C74.3816 411.43 96.0835 333.09 126.831 157.746L310.632 189.913C285.549 332.906 277.281 441.179 274.996 478.183C274.402 487.947 273.26 497.62 271.57 507.246L270.701 512.174C269.148 521.072 262.386 525.36 253.661 528.919C238.354 535.17 199.932 536.767 156.437 529.147C107.505 520.57 72.8741 507.612 61.635 491.871C61.635 491.871 55.2387 483.703 56.792 474.76V474.715C58.8024 463.034 61.6348 451.582 65.1985 440.359Z" fill="#6DEEC0"/>
<path d="M155.568 533.847C196.23 540.964 237.303 540.736 255.441 533.299C264.167 529.739 273.351 524.539 275.406 512.95L276.274 508.022C277.965 498.303 279.153 488.311 279.746 478.411C282.168 439.034 290.483 332.177 315.337 190.688C315.794 188.088 314.059 185.624 311.454 185.167L127.653 153.001C125.048 152.544 122.581 154.278 122.124 156.879C91.9247 329.074 70.6342 407.46 60.6744 438.851C57.0193 450.395 54.0954 462.122 52.085 473.803C50.2576 484.295 56.928 493.513 57.7959 494.654C72.6901 515.505 119.155 527.458 155.568 533.847ZM305.103 193.745C280.844 333.408 272.619 438.761 270.243 477.862C269.65 487.444 268.508 497.027 266.863 506.425L265.994 511.353C264.99 517.147 261.151 520.705 251.831 524.493C237.76 530.241 200.752 532.066 157.212 524.447C108.921 516.007 75.477 503.093 65.4715 489.087C65.4258 489.041 65.3803 488.949 65.3346 488.903C65.2889 488.859 60.2633 482.196 61.4512 475.535C63.4158 464.22 66.2481 452.905 69.7661 441.773C79.7261 410.427 100.88 332.679 130.713 163.221L305.103 193.745Z" fill="black"/>
<path d="M126.831 157.747C128.841 146.432 171.559 144.425 222.317 153.322C273.077 162.219 312.597 178.599 310.587 189.914C308.622 201.229 265.858 203.237 215.098 194.34C164.386 185.443 124.866 169.063 126.831 157.747Z" fill="#6DEEC0"/>
<path d="M214.322 199.038C239.222 203.373 263.025 205.335 281.391 204.468C302.773 203.464 313.875 198.993 315.337 190.734C316.8 182.476 307.89 174.491 288.107 166.278C271.111 159.252 248.04 152.955 223.186 148.621C198.286 144.286 174.482 142.324 156.116 143.191C134.734 144.195 123.632 148.666 122.17 156.925C120.708 165.183 129.617 173.168 149.4 181.381C166.35 188.407 189.422 194.658 214.322 199.038ZM221.495 157.974C245.435 162.172 267.639 168.149 283.95 174.856C302.591 182.521 306.017 187.996 305.926 189.046C305.652 190.05 300.581 194.065 280.477 194.932C262.842 195.708 239.952 193.791 216.013 189.639C192.073 185.441 169.868 179.465 153.558 172.757C134.917 165.092 131.49 159.617 131.628 158.567C131.902 157.564 136.973 153.548 157.121 152.682C174.666 151.906 197.555 153.822 221.495 157.974Z" fill="black"/>
<path d="M207.104 239.738C241.964 245.852 260.194 246.08 275.134 243.297L276.184 237.547C278.789 236.954 284.271 241.152 286.829 240.376C269.514 344.131 264.077 422.017 262.57 449.667C262.342 454.275 261.885 458.837 261.29 463.399C259.28 468.737 254.163 471.566 247.858 473.939C235.112 478.776 202.354 482.745 165.849 476.358C124.776 469.194 96.1749 455.552 86.6262 443.004C86.6262 443.004 82.743 438.304 82.2861 432.601C83.474 427.673 84.8903 422.791 86.4894 417.909C93.6166 396.146 109.881 338.931 132.451 213.411C145.929 223.358 162.833 231.982 207.104 239.738Z" fill="black"/>
<path d="M128.338 206.066C114.632 203.465 100.834 201.047 87.0366 198.857C82.6506 198.127 78.5386 197.579 74.0612 197.944C66.4313 198.583 58.8471 201.047 52.4053 205.153C45.6436 209.397 40.0238 215.556 38.4248 223.495C44.1816 211.131 58.7558 204.56 71.8225 203.693C74.518 203.511 77.2595 203.602 79.955 204.013C81.8282 204.332 83.7013 204.925 85.5287 205.381C92.8845 207.298 100.286 209.123 107.642 210.948C113.855 212.499 120.114 214.005 126.374 215.419C127.013 212.271 127.653 209.169 128.338 206.066Z" fill="#6DEEC0"/>
<path d="M83.245 419.871L36.2783 377.759L76.3007 426.488L83.245 419.871Z" fill="#6DEEC0"/>
<path d="M125.78 191.055C125.186 194.523 117.967 205.063 101.794 202.234C85.6204 199.405 128.476 210.766 128.476 210.766L130.12 190.371L125.78 191.055Z" fill="#6DEEC0"/>
<path d="M59.9898 227.233C54.3701 233.393 50.5325 240.648 47.1515 248.175C43.3594 256.617 40.4354 265.515 37.9226 274.457C32.8056 292.57 29.3332 311.232 27.9169 329.985C27.2317 338.973 26.9576 348.145 28.511 357.087C28.5566 349.193 29.516 341.346 30.658 333.544C32.0288 324.418 33.6737 315.292 35.4554 306.212C39.0648 287.962 43.2681 269.666 49.0703 252.009C51.9029 243.431 55.1469 234.943 59.9898 227.233Z" fill="#6DEEC0"/>
<path d="M82.5133 397.012C80.4572 405.361 72.1876 411.066 63.2787 402.26C54.3695 393.408 77.7615 419.141 77.7615 419.141L83.1983 411.02L85.7113 396.647L82.5133 397.012Z" fill="#6DEEC0"/>
<path d="M66.6592 414.533C70.0858 418.595 74.5175 426.989 71.5478 436.891C68.7609 446.153 80.5485 418.639 80.5485 418.639L66.6592 414.533Z" fill="#6DEEC0"/>
<path d="M76.8482 450.943C79.7265 457.286 98.4582 473.117 119.201 478.639C106.591 480.92 90.4174 480.828 82.5593 492.509C77.0766 488.768 72.1878 484.57 70.9085 481.331C68.6699 475.628 76.8482 450.943 76.8482 450.943Z" fill="black"/>
<path d="M258.868 482.791C254.025 487.763 230.451 495.155 210.256 493.056C221.313 499.49 235.979 506.287 239.359 519.931C245.802 518.288 251.833 516.007 254.117 513.36C258.183 508.752 258.868 482.791 258.868 482.791Z" fill="black"/>
<path d="M256.812 257.395C255.533 264.33 254.664 269.122 253.432 276.103C250.278 294.033 247.355 312.011 244.658 330.032C241.827 348.557 239.177 367.128 236.754 385.743C234.47 403.538 232.186 421.332 230.131 439.126C228.394 453.864 226.795 468.601 225.196 483.339C225.15 483.749 225.106 484.205 225.06 484.616C229.766 485.028 234.516 485.438 239.223 485.802C240.547 485.894 241.827 486.03 243.152 486.122C243.654 486.168 244.843 486.487 245.299 486.304C245.618 486.168 245.528 485.574 245.528 485.164C245.71 483.293 245.847 481.468 246.029 479.597C246.944 469.195 247.858 458.837 248.862 448.434C249.96 436.799 251.102 425.164 252.334 413.575C253.66 400.891 255.031 388.252 256.493 375.614C257.954 362.793 259.507 350.017 261.198 337.242C262.843 324.694 264.533 312.193 266.315 299.691C268.006 287.874 269.787 276.057 271.706 264.286C272.255 260.818 272.437 259.54 273.031 256.118C268.326 257.077 259.964 257.533 256.812 257.395Z" fill="#6DEEC0"/>
<path d="M142.364 213.229C140.72 224.088 139.029 234.947 137.339 245.761C135.055 260.178 132.679 274.55 130.166 288.922C127.47 304.299 124.638 319.675 121.531 335.006C118.515 349.927 115.363 364.801 112.028 379.674C109.15 392.541 105.997 405.363 102.708 418.184C102.616 418.548 102.525 418.868 102.434 419.233C106.317 408.146 110.018 397.013 113.536 385.834C118.059 371.508 122.125 356.998 126.008 342.489C130.029 327.387 133.867 312.238 137.522 297.045C141.085 282.353 144.466 267.569 147.756 252.786C150.405 240.787 152.873 228.742 155.34 216.696C155.431 216.331 155.477 215.966 155.568 215.647C151.182 214.78 146.796 214.004 142.364 213.229Z" fill="#6DEEC0"/>
<path d="M237.394 286.87C237.075 288.649 236.708 290.428 236.39 292.208C235.476 296.999 234.607 301.835 233.693 306.627C232.369 313.744 231.044 320.861 229.718 327.934C228.075 336.648 226.474 345.318 224.829 354.032C223.048 363.522 221.267 372.968 219.53 382.458C217.749 392.084 215.921 401.712 214.14 411.338C212.449 420.282 210.804 429.224 209.114 438.168C207.697 445.741 206.281 453.271 204.864 460.844C203.86 466.274 202.808 471.749 201.804 477.179C201.484 478.866 201.164 480.555 200.845 482.243C200.707 483.064 200.342 484.068 200.342 484.89C200.342 484.98 200.296 485.118 200.296 485.209C203.678 485.711 207.058 486.259 210.44 486.759C210.668 484.98 210.941 483.202 211.169 481.377C211.81 476.539 212.495 471.658 213.135 466.821C214.094 459.657 215.054 452.494 216.012 445.331C217.2 436.571 218.388 427.81 219.576 419.004C220.856 409.469 222.135 399.933 223.459 390.351C224.785 380.633 226.064 370.959 227.388 361.241C228.622 352.207 229.81 343.219 231.044 334.185C232.05 326.565 233.1 318.946 234.106 311.325C234.837 305.85 235.566 300.33 236.344 294.854C236.708 292.253 237.029 289.653 237.394 287.098C237.349 287.098 237.394 287.006 237.394 286.87Z" fill="#6DEEC0"/>
<path d="M122.262 491.641C121.531 495.885 139.075 502.456 161.462 506.379C183.849 510.303 202.58 510.029 203.312 505.831C204.043 501.589 186.5 495.018 164.112 491.095C141.771 487.171 122.993 487.399 122.262 491.641Z" fill="black"/>
<path d="M117.784 235.357C119.475 225.821 118.561 213.593 108.053 210.445C98.0473 207.479 126.785 208.985 126.785 208.985L124.455 227.144L117.784 235.357Z" fill="#6DEEC0"/>
<path d="M248.179 273.089L275.179 272.085L274.403 286.823L245.574 287.918L248.179 273.089Z" fill="black"/>
<path d="M183.759 251.19C183.392 253.198 184.763 255.159 186.774 255.479C188.784 255.799 190.749 254.475 191.068 252.468C191.434 250.459 190.064 248.498 188.052 248.178C186.043 247.86 184.123 249.137 183.759 251.19Z" fill="#6DEEC0"/>
<path d="M168.681 307.539C168.316 309.548 169.686 311.509 171.696 311.829C173.707 312.193 175.671 310.824 175.991 308.817C176.356 306.809 174.985 304.848 172.976 304.528C170.966 304.209 169.047 305.532 168.681 307.539Z" fill="#6DEEC0"/>
<path d="M186.728 287.008C186.362 289.017 187.732 290.978 189.744 291.298C191.753 291.662 193.719 290.293 194.037 288.286C194.404 286.279 193.033 284.317 191.022 283.998C189.012 283.632 187.093 284.955 186.728 287.008Z" fill="#6DEEC0"/>
<path d="M168.726 266.43C168.361 268.439 169.731 270.4 171.742 270.72C173.751 271.084 175.717 269.716 176.035 267.709C176.402 265.7 175.031 263.739 173.02 263.419C171.01 263.055 169.092 264.423 168.726 266.43Z" fill="#6DEEC0"/>
<path d="M201.394 240.195C200.342 246.218 204.363 251.968 210.394 253.017C216.424 254.067 222.182 250.052 223.232 244.029C224.282 238.006 220.263 232.258 214.232 231.207C208.202 230.159 202.444 234.173 201.394 240.195Z" fill="#6DEEC0"/>
<path d="M171.148 231.756C170.599 234.767 172.655 237.64 175.671 238.143C178.686 238.691 181.565 236.638 182.068 233.626C182.569 230.613 180.559 227.74 177.544 227.238C174.528 226.736 171.649 228.744 171.148 231.756Z" fill="#6DEEC0"/>
<path d="M229.171 243.799C229.171 243.799 229.125 243.525 228.989 243.068C228.897 242.796 228.806 242.43 228.714 242.066C228.622 241.61 228.44 241.198 228.257 240.741C227.891 239.829 227.39 238.826 226.749 237.822C226.43 237.32 226.064 236.818 225.699 236.361C225.332 235.859 224.876 235.449 224.419 234.993C223.962 234.583 223.505 234.172 223.004 233.852C222.547 233.488 221.998 233.214 221.542 232.94C220.536 232.438 219.576 232.073 218.755 231.89C218.344 231.753 217.931 231.753 217.613 231.707C217.292 231.663 216.973 231.617 216.743 231.617C216.286 231.617 216.014 231.617 216.014 231.617C216.014 231.617 216.242 231.707 216.699 231.89C216.927 231.981 217.2 232.073 217.474 232.21C217.749 232.347 218.069 232.484 218.388 232.712C219.073 233.122 219.759 233.67 220.399 234.354C220.718 234.719 221.039 235.085 221.313 235.495C221.588 235.905 221.86 236.315 222.089 236.727C222.317 237.184 222.501 237.594 222.684 238.05C222.866 238.506 223.002 238.917 223.094 239.373C223.323 240.241 223.415 241.061 223.415 241.746C223.415 242.112 223.415 242.384 223.415 242.658C223.415 242.886 223.415 243.114 223.369 243.342C223.323 243.799 223.277 244.073 223.277 244.073L229.171 243.799Z" fill="black"/>
<path d="M173.615 129.551C174.986 122.387 181.701 117.642 188.554 116.456C195.408 115.224 203.175 118.098 207.104 123.665C216.333 109.429 232.095 103.589 247.903 113.809C268.966 100.213 301.86 111.939 305.469 136.988C312.779 132.425 320.958 132.836 328.862 137.672C339.461 144.197 340.649 156.47 335.896 164.455C343.161 169.474 350.015 178.097 348.188 188.546C346.086 200.591 337.04 208.804 327.125 209.215C331.557 225.412 321.004 243.617 301.449 244.621C283.768 245.534 271.432 230.021 272.803 213.23C267 216.743 255.578 215.374 249.64 211.633C244.384 208.302 239.953 203.329 237.578 197.625C230.359 196.759 222.866 195.664 215.145 194.34C164.386 185.443 129.755 172.166 126.876 157.748C121.485 131.877 150.177 113.125 173.615 129.551Z" fill="#6DEEC0"/>
<path d="M294.412 248.955C296.788 249.365 299.21 249.501 301.677 249.365C312.003 248.817 320.865 244.118 326.669 236.087C331.419 229.472 333.567 221.213 332.7 213.137C342.796 210.399 350.792 201.274 352.847 189.366C354.492 179.921 350.425 170.294 341.79 162.993C345.354 153.229 342.705 140.636 331.283 133.61C323.836 129.047 315.932 127.861 308.667 130.234C304.189 116.956 291.763 106.781 276.046 103.998C266.04 102.264 256.126 103.77 247.857 108.241C244.293 106.28 240.639 104.956 236.982 104.317C225.698 102.356 214.687 106.781 206.555 116.317C203.539 114.036 199.885 112.439 195.956 111.709C193.169 111.207 190.382 111.207 187.731 111.663C181.564 112.758 174.848 116.409 171.238 122.477C167.949 120.789 164.477 119.648 160.913 119.055C149.72 117.093 138.344 120.697 130.531 128.728C122.901 136.621 119.794 147.48 122.124 158.613C126.282 179.373 174.528 192.012 214.276 198.947C220.992 200.134 227.754 201.137 234.334 201.959C237.211 207.388 241.643 212.179 247.034 215.601C249.821 217.38 253.614 218.749 257.635 219.434C259.69 219.799 263.802 220.3 268.097 219.662C269.65 234.444 280.113 246.444 294.412 248.955ZM318.947 138.811C321.368 139.222 323.836 140.226 326.348 141.731C334.343 146.659 335.394 155.921 331.784 161.989L329.546 165.822L333.201 168.332C336.08 170.339 345.264 177.594 343.527 187.677C341.882 197.031 334.938 204.057 326.988 204.377L320.957 204.605L322.556 210.4C324.429 217.244 323.105 224.772 318.947 230.475C314.88 236.087 308.575 239.418 301.22 239.783C299.483 239.875 297.748 239.783 296.103 239.464C284.681 237.456 276.548 226.095 277.554 213.548L278.33 204.24L270.335 209.076C268.096 210.445 263.802 210.81 259.324 210.035C256.537 209.533 253.934 208.62 252.197 207.525C247.673 204.651 243.927 200.316 241.963 195.708L240.867 193.153L238.08 192.833C230.815 191.966 223.368 190.871 215.921 189.594C156.39 179.191 133.226 165.412 131.49 156.743C129.845 148.758 131.993 141.001 137.384 135.435C142.958 129.686 151.136 127.085 159.223 128.5C163.243 129.184 167.172 130.872 170.827 133.427L176.858 137.671L178.275 130.416C179.28 125.169 184.58 121.929 189.33 121.108C190.885 120.834 192.574 120.834 194.265 121.154C197.965 121.793 201.255 123.754 203.129 126.401L207.196 132.15L211.032 126.218C217.246 116.637 226.063 112.12 235.293 113.717C238.583 114.31 241.963 115.678 245.253 117.777L247.857 119.465L250.46 117.777C257.222 113.397 265.721 111.846 274.447 113.352C286.097 115.405 298.707 123.663 300.671 137.625L301.723 144.88L307.936 141.001C311.454 138.903 315.109 138.127 318.947 138.811Z" fill="black"/>
<path d="M302.224 133.476C301.31 134.89 300.351 136.259 299.665 137.764C298.844 139.589 298.295 141.506 297.93 143.514C297.381 146.799 297.381 150.358 298.067 153.643C298.89 150.905 300.26 148.259 301.905 145.977C302.865 144.7 303.915 143.468 305.195 142.464C306.245 141.643 307.479 141.141 308.621 140.502C306.519 138.175 304.372 135.802 302.224 133.476Z" fill="black"/>
<path d="M331.512 207.251C331.512 207.251 331.33 207.023 330.963 206.566C330.781 206.338 330.599 206.065 330.37 205.791C330.05 205.426 329.729 204.969 329.318 204.513C328.954 204.011 328.543 203.646 328.086 203.19C327.674 202.734 327.171 202.323 326.67 201.867C325.71 201 324.568 200.179 323.47 199.449C322.374 198.719 321.186 198.034 320.136 197.487C319.038 196.939 318.034 196.437 317.121 196.118C315.338 195.388 314.151 195.068 314.151 195.068C314.151 195.068 315.063 195.935 316.251 197.35C316.846 198.034 317.485 198.901 318.171 199.814C318.81 200.726 319.451 201.73 320.044 202.779C320.593 203.829 321.096 204.833 321.46 205.836C321.643 206.338 321.825 206.795 321.963 207.251C322.1 207.707 322.238 208.117 322.282 208.437C322.556 210.08 322.741 211.175 322.741 211.175L331.512 207.251Z" fill="black"/>
<path d="M276.777 170.75C279.015 169.153 280.935 167.008 281.804 164.362C282.672 161.716 282.351 158.841 281.073 156.423C278.605 151.632 273.123 148.895 267.869 148.986C264.944 149.031 261.883 149.853 259.781 151.952C261.793 152.864 263.802 153.731 265.858 154.644C265.858 147.115 259.964 141.229 252.929 139.541C246.167 137.899 237.989 139.769 233.968 145.838C231.73 149.26 231.365 153.64 232.918 157.427C233.649 153.959 234.927 150.537 237.943 148.393C240.776 146.431 244.43 145.929 247.766 146.431C251.238 146.933 254.756 148.529 256.766 151.45C257.954 153.183 258.365 155.237 258.822 157.244C259.188 158.887 259.599 160.575 259.964 162.218C261.655 160.575 263.254 158.613 265.311 157.518C266.543 156.879 267.685 156.149 269.056 155.83C270.428 155.51 271.889 155.556 273.259 155.921C275.956 156.606 278.422 158.476 279.336 161.168C280.478 164.499 278.833 168.058 276.777 170.75C277.965 169.883 277.645 169.564 276.777 170.75Z" fill="black"/>
<path d="M243.928 116.498C247.903 120.057 251.924 123.571 255.899 127.13C256.492 127.631 257.041 128.133 257.636 128.681C255.945 123.57 254.254 118.46 252.563 113.35C252.335 112.62 252.06 111.89 251.832 111.16C249.229 112.94 246.578 114.719 243.928 116.498Z" fill="black"/>
<path d="M166.625 168.424C159.406 173.671 159.315 184.256 165.391 190.461C172.062 197.214 183.621 196.53 189.513 189.184C192.575 185.397 193.717 180.287 192.21 175.633C186.728 158.477 174.346 162.766 166.625 168.424Z" fill="#6DEEC0"/>
<path d="M166.624 168.422C161.416 169.928 158.172 174.855 157.624 180.057C156.984 185.942 159.634 191.874 164.203 195.57C172.198 202.003 184.626 201.09 191.067 192.878C194.86 188.041 196.138 180.787 192.209 175.631C191.935 179.007 191.067 182.201 188.874 184.939C186.499 187.905 182.981 190.003 179.142 190.414C172.062 191.19 165.391 186.353 164.112 179.281C163.426 175.266 164.66 171.844 166.624 168.422Z" fill="black"/>
<path d="M315.704 211.036C314.059 214.595 312.14 217.744 309.078 220.253C306.429 222.443 302.591 224.451 299.028 223.584C299.074 223.584 299.119 223.629 299.211 223.629C296.057 222.854 293.27 221.531 290.986 219.158C288.063 216.101 286.737 212.223 285.366 208.299C280.89 216.649 285.504 227.143 293.955 230.748C296.47 231.842 299.211 232.344 301.952 232.07C306.612 231.614 310.815 228.785 313.51 225.044C316.343 221.029 317.577 215.645 315.704 211.036Z" fill="black"/>
<path d="M324.156 206.887C329.501 203.876 334.299 200.089 336.583 194.157C337.451 191.83 337.817 189.184 337.543 186.72C337.223 183.755 336.263 181.108 334.984 178.416C335.532 182.979 335.487 187.496 332.837 191.419C330.096 195.526 325.344 196.986 320.775 197.99C321.871 200.91 323.013 203.921 324.156 206.887Z" fill="black"/>
<path d="M274.676 198.628C271.615 198.811 268.691 198.993 265.676 198.355C262.432 197.67 259.234 196.529 256.538 194.613C253.979 192.788 251.649 190.644 249.776 188.089C248.041 185.67 246.624 183.115 244.979 180.651C244.384 186.264 245.985 191.921 249.776 196.21C253.889 200.864 260.467 203.556 266.682 202.552C269.741 202.005 272.438 200.773 274.676 198.628Z" fill="black"/>
<path d="M142.09 168.104C140.994 165.458 140.034 162.857 139.486 160.074C138.983 157.336 138.892 154.599 139.029 151.815C139.212 148.85 139.989 145.793 141.314 143.101C142.639 140.363 144.603 138.31 146.933 136.394C144.146 137.671 141.816 139.177 139.714 141.413C137.384 143.922 135.557 147.161 134.461 150.401C133.227 153.96 132.45 157.655 132.313 161.442C132.176 164.5 132.45 167.511 132.861 170.568C135.922 169.792 138.984 168.925 142.09 168.104Z" fill="black"/>
</svg>
